<!-- Generator: Adobe Illustrator 23.0.0, SVG Export Plug-In  -->
<svg version="1.1" xmlns="http://www.w3.org/2000/svg" xmlns:xlink="http://www.w3.org/1999/xlink" x="0px" y="0px" width="40.6px"
	 height="60.8px" viewBox="0 0 40.6 60.8" style="enable-background:new 0 0 40.6 60.8;" xml:space="preserve">
<defs>
</defs>
<g>
	<polygon style="fill:#FFFFFF;" points="40.6,0 40,0 0.6,0 0,0 0,0.7 0,60.2 0,60.8 0.6,60.8 40,60.8 40.6,60.8 40.6,60.2 40.6,0.7 
		40.6,0 	"/>
	<g>
		<g>
			<path d="M40,0.7v59.5H0.6V0.7H40"/>
		</g>
		<rect x="2.6" y="2.8" style="fill:#FFFFFF;" width="35.1" height="9.9"/>
		<rect x="2.6" y="14.8" style="fill:#FFFFFF;" width="35.1" height="36.3"/>
		<g>
			<polygon style="fill:#FFFFFF;" points="2.6,58 2.6,53.2 9.6,53.2 9.6,54.3 5.4,54.3 5.4,55 9,55 9,56.2 5.4,56.2 5.4,56.9 
				9.8,56.9 9.8,58 			"/>
			<path style="fill:#FFFFFF;" d="M15.8,54.6c0-0.2-0.2-0.3-0.4-0.3c-0.2-0.1-0.5-0.1-0.7-0.1c-0.6,0-0.9,0.1-0.9,0.3
				c0,0.7,5,0.3,5,2c0,1.1-1.7,1.7-4,1.7c-2.3,0-3.8-0.7-3.8-1.6h2.7c0.1,0.2,0.2,0.3,0.5,0.4c0.2,0.1,0.5,0.1,0.8,0.1
				c0.7,0,1.2-0.1,1.2-0.4c0-0.7-5-0.2-5-2.1c0-1,1.6-1.5,3.8-1.5c2.4,0,3.5,0.7,3.7,1.5H15.8z"/>
			<path style="fill:#FFFFFF;" d="M23,55.3h1.1c0.9,0,1.3-0.1,1.3-0.5c0-0.3-0.5-0.5-1.1-0.5H23V55.3z M23,56.4V58h-2.8v-4.8h4.1
				c2.9,0,3.8,0.4,3.8,1.4c0,0.6-0.4,1-1.5,1.2C27.5,56,28,56.1,28,57c0,0.6,0,0.8,0.3,0.8V58h-2.9c-0.1-0.1-0.1-0.4-0.1-0.8
				c0-0.6-0.2-0.8-1.5-0.8H23z"/>
			<path style="fill:#FFFFFF;" d="M32.6,54.3v0.8h1.2c0.6,0,1-0.1,1-0.4c0-0.4-0.6-0.4-1.2-0.4H32.6z M32.6,56v0.9h1.2
				c0.7,0,1.2-0.1,1.2-0.4c0-0.4-0.7-0.4-1.6-0.4H32.6z M29.8,58v-4.8h4.1c1.9,0,3.5,0.3,3.5,1.2c0,0.5-0.6,0.9-1.1,1
				c0.9,0.1,1.4,0.6,1.4,1.1c0,1.1-1.5,1.5-3.7,1.5H29.8z"/>
		</g>
		<g>
			<path d="M21.4,37.1c-0.6-2.2-1.8-3.4-3.4-3.9c1-1.2,1.6-3.1,0.8-6c-1.1-4.1-3.9-6.1-7.4-5.2l-7.8,2.1l-0.2,0L10,48l5.2-1.4
				c0,0-2.1-7.8-2.5-9.2l0.3-0.1c0.8-0.2,1.4-0.2,1.8,0c0.7,0.4,1,1.6,1.4,3l0.3,1.1c0.3,1.3,0.7,2.7,1.6,3.9l0.3,0.5l6-1.6l-0.8-1
				C23.1,42.7,22.1,39.6,21.4,37.1z M12.9,32.8c0,0-0.7,0.2-1.3,0.4c-0.4-1.4-1.3-4.7-1.7-6.2c0.7-0.2,1.3-0.4,1.3-0.4
				c0.6-0.2,1.7-0.4,2.5,2.4C13.8,29.6,14.5,32.4,12.9,32.8z"/>
			<path d="M28,18.1l-7,1.9l-0.8,0.2L26.5,44l5.3-1.4c0,0-2.1-7.7-2.4-9c0.9-0.2,2.3-0.6,2.3-0.6c4.2-1.1,5.7-4.3,4.5-9.1
				C34.5,17.7,30.8,17.3,28,18.1z M30.1,28.6c0,0-1,0.3-1.9,0.5c-0.4-1.4-1.3-4.8-1.7-6.2c0.8-0.2,1.6-0.4,1.6-0.4
				c0.9-0.2,2-0.2,2.8,2.8C31.4,26.8,31,28.4,30.1,28.6z"/>
		</g>
		<g>
			<path d="M4.2,10.5H3.5V4.9h1.3c0.2,0,0.4,0.1,0.6,0.4c0.1,0.2,0.2,0.6,0.2,1.1c0,0.4,0,0.7-0.1,0.9C5.4,7.5,5.2,7.7,5,7.7v0
				c0,0,0.1,0,0.2,0c0.1,0,0.1,0.1,0.2,0.1C5.4,8,5.5,8.1,5.5,8.3c0,0.1,0.1,0.3,0.1,0.6c0,0.1,0,0.2,0,0.4c0,0.2,0,0.3,0,0.5
				c0,0.2,0,0.3,0,0.5c0,0.1,0,0.2,0,0.3H5c0-0.2-0.1-0.3-0.1-0.5c0-0.2,0-0.4,0-0.6c0-0.2,0-0.3,0-0.5c0-0.1,0-0.3,0-0.4
				c0-0.1-0.1-0.2-0.1-0.3S4.6,8.2,4.4,8.2H4.2V10.5z M4.2,7.3h0.3c0.1,0,0.1,0,0.2-0.1c0-0.1,0.1-0.1,0.1-0.2c0-0.1,0-0.2,0.1-0.3
				c0-0.1,0-0.2,0-0.3c0-0.3,0-0.5-0.1-0.6C4.8,5.8,4.7,5.8,4.6,5.8H4.2V7.3z"/>
			<path d="M5.9,10.5l0.9-5.6h0.9l0.9,5.6H7.9L7.7,9.3h-1l-0.2,1.2H5.9z M7.2,6L7.2,6L6.9,8.4h0.7L7.2,6z"/>
			<path d="M10.7,4.9v0.9H9.9v4.7H9.2V5.8H8.4V4.9H10.7z"/>
			<path d="M11,10.5V4.9h0.7v5.6H11z"/>
			<path d="M12.3,10.5V4.9h0.9l0.9,3.9h0V4.9h0.7v5.6h-0.9L13,6.4h0v4.1H12.3z"/>
			<path d="M16.9,6.6c0-0.1,0-0.3,0-0.4c0-0.1,0-0.2-0.1-0.3c0-0.1-0.1-0.2-0.1-0.2c-0.1-0.1-0.1-0.1-0.2-0.1
				c-0.1,0-0.2,0.1-0.3,0.2c-0.1,0.1-0.1,0.3-0.1,0.5c0,0.2,0,0.4,0,0.7c0,0.3,0,0.5,0,0.8c0,0.4,0,0.8,0,1.1c0,0.3,0,0.5,0.1,0.6
				c0,0.1,0.1,0.2,0.2,0.3c0.1,0.1,0.1,0.1,0.2,0.1c0.1,0,0.1,0,0.2,0c0.1,0,0.1,0,0.2-0.1V8.4h-0.4V7.6h1.1v2.8c0,0-0.1,0-0.2,0.1
				c-0.1,0-0.2,0-0.3,0.1c-0.1,0-0.2,0-0.3,0.1c-0.1,0-0.2,0-0.2,0c-0.3,0-0.5-0.1-0.7-0.2c-0.2-0.1-0.3-0.3-0.4-0.5
				c-0.1-0.2-0.1-0.5-0.2-0.9c0-0.4,0-0.8,0-1.4c0-0.4,0-0.7,0-1c0-0.3,0.1-0.6,0.1-0.9c0.1-0.3,0.2-0.5,0.4-0.6
				c0.2-0.2,0.4-0.2,0.7-0.2c0.2,0,0.3,0,0.5,0.1c0.1,0.1,0.3,0.2,0.3,0.3c0.1,0.2,0.2,0.3,0.2,0.6c0,0.2,0.1,0.5,0.1,0.8H16.9z"/>
			<path d="M19.3,4.9h1.3c0.2,0,0.3,0,0.4,0.1c0.1,0.1,0.2,0.2,0.3,0.3c0.1,0.1,0.1,0.3,0.2,0.5c0,0.2,0,0.4,0,0.7
				c0,0.2,0,0.3,0,0.5c0,0.2-0.1,0.4-0.1,0.5c-0.1,0.2-0.2,0.3-0.3,0.4c-0.1,0.1-0.3,0.2-0.5,0.2H20v2.3h-0.7V4.9z M20,7.4h0.4
				c0.1,0,0.1,0,0.1-0.1s0.1-0.1,0.1-0.2c0-0.1,0.1-0.1,0.1-0.2c0-0.1,0-0.2,0-0.3c0-0.1,0-0.2,0-0.3c0-0.1,0-0.2-0.1-0.3
				c0-0.1-0.1-0.1-0.1-0.2c0,0-0.1-0.1-0.2-0.1H20V7.4z"/>
			<path d="M21.8,10.5V4.9h1.8v0.9h-1.1v1.4h1V8h-1v1.6h1.2v0.9H21.8z"/>
			<path d="M24.2,10.5V4.9h0.9L26,8.8h0V4.9h0.7v5.6h-0.9l-0.9-4.1h0v4.1H24.2z"/>
			<path d="M27.3,4.9h1.2c0.2,0,0.4,0.1,0.6,0.2c0.1,0.1,0.3,0.3,0.3,0.5c0.1,0.2,0.1,0.5,0.2,0.9c0,0.3,0,0.7,0,1.2
				c0,0.1,0,0.3,0,0.5c0,0.2,0,0.4,0,0.6c0,0.2,0,0.4-0.1,0.6c0,0.2-0.1,0.4-0.2,0.5c-0.1,0.2-0.2,0.3-0.3,0.4
				c-0.1,0.1-0.3,0.2-0.5,0.2h-1.1V4.9z M28,9.6h0.3c0.1,0,0.2,0,0.3-0.1c0.1-0.1,0.1-0.2,0.2-0.3c0-0.2,0.1-0.4,0.1-0.6
				c0-0.2,0-0.5,0-0.9c0-0.3,0-0.5,0-0.7c0-0.2,0-0.4-0.1-0.6c0-0.2-0.1-0.3-0.1-0.4c-0.1-0.1-0.2-0.2-0.3-0.2H28V9.6z"/>
			<path d="M30.1,10.5V4.9h0.7v5.6H30.1z"/>
			<path d="M31.4,10.5V4.9h0.9l0.9,3.9h0V4.9h0.7v5.6H33L32,6.4h0v4.1H31.4z"/>
			<path d="M36,6.6c0-0.1,0-0.3,0-0.4c0-0.1,0-0.2-0.1-0.3c0-0.1-0.1-0.2-0.1-0.2c-0.1-0.1-0.1-0.1-0.2-0.1c-0.1,0-0.2,0.1-0.3,0.2
				c-0.1,0.1-0.1,0.3-0.1,0.5c0,0.2,0,0.4,0,0.7c0,0.3,0,0.5,0,0.8c0,0.4,0,0.8,0,1.1c0,0.3,0,0.5,0.1,0.6c0,0.1,0.1,0.2,0.2,0.3
				c0.1,0.1,0.1,0.1,0.2,0.1c0.1,0,0.1,0,0.2,0c0.1,0,0.1,0,0.2-0.1V8.4h-0.4V7.6h1.1v2.8c0,0-0.1,0-0.2,0.1c-0.1,0-0.2,0-0.3,0.1
				c-0.1,0-0.2,0-0.3,0.1c-0.1,0-0.2,0-0.2,0c-0.3,0-0.5-0.1-0.7-0.2c-0.2-0.1-0.3-0.3-0.4-0.5c-0.1-0.2-0.1-0.5-0.2-0.9
				c0-0.4,0-0.8,0-1.4c0-0.4,0-0.7,0-1c0-0.3,0.1-0.6,0.1-0.9c0.1-0.3,0.2-0.5,0.4-0.6c0.2-0.2,0.4-0.2,0.7-0.2c0.2,0,0.3,0,0.5,0.1
				c0.1,0.1,0.3,0.2,0.3,0.3c0.1,0.2,0.2,0.3,0.2,0.6c0,0.2,0.1,0.5,0.1,0.8H36z"/>
		</g>
	</g>
</g>
</svg>
