<?xml version="1.0" encoding="UTF-8" standalone="no"?>
<!-- Created with Inkscape (http://www.inkscape.org/) -->
<svg version="1.1" xmlns="http://www.w3.org/2000/svg" xmlns:svg="http://www.w3.org/2000/svg" x="0" y="0" width="39.68" height="59.53" viewBox="0 0 39.68 59.53">
	<g fill="#FFF">
		<polygon points="39.69 0 39.11 0 0.58 0 0 0 0 0.64 0 58.89 0 59.53 0.58 59.53 39.11 59.53 39.69 59.53 39.69 58.89 39.69 0.64 39.69 0 39.69 0"/>
		<path d="M39.11.64V58.89H.58V.64H39.11" fill="#000"/>
		<rect x="2.52" y="2.71" width="34.38" height="9.66"/>
		<rect x="2.5" y="14.47" width="34.4" height="35.51"/>
		<polygon points="2.51 56.79 2.51 52.08 9.41 52.08 9.41 53.18 5.28 53.18 5.28 53.85 8.78 53.85 8.78 54.95 5.28 54.95 5.28 55.69 9.57 55.69 9.57 56.79 2.51 56.79"/>
		<path d="M15.44,53.45a.52.52,0,0,0-.4-.32,2.53,2.53,0,0,0-.72-.09c-.61,0-.88.1-.88.28,0,.69,4.87.26,4.87,2,0,1.09-1.64,1.63-4,1.63s-3.7-.73-3.75-1.58h2.65a.69.69,0,0,0,.46.37,2.52,2.52,0,0,0,.79.12c.69,0,1.16-.12,1.16-.35,0-.71-4.88-.22-4.88-2,0-1,1.56-1.5,3.67-1.5,2.35,0,3.43.66,3.63,1.49Z"/>
		<path d="M22.46,54.12h1.09c.86,0,1.32-.12,1.32-.45s-.47-.49-1.11-.49h-1.3Zm0,1v1.64H19.69V52.08h4c2.82,0,3.75.43,3.75,1.34,0,.55-.44,1-1.43,1.16.9.18,1.44.29,1.44,1.24,0,.61,0,.83.29.83v.14H24.93a1.83,1.83,0,0,1-.14-.82c0-.62-.19-.82-1.48-.82Z"/>
		<path d="M31.91,53.18V54h1.16c.55,0,1-.14,1-.41s-.54-.38-1.13-.38Zm0,1.64v.87h1.21c.69,0,1.21-.08,1.21-.43s-.65-.44-1.53-.44Zm-2.77,2V52.08h4c1.9,0,3.42.25,3.42,1.18,0,.49-.57.84-1.1,1,.91.13,1.4.57,1.4,1.08,0,1.05-1.44,1.42-3.64,1.42Z"/>
	</g>
	<g fill="#000">
		<polyline points="5.07 22.68 25.89 16.46 27.97 23.06 17.55 26.17 18.4 28.87 28.03 25.99 30.12 32.59 20.49 35.46 21.39 38.3 32.16 35.08 34.24 41.67 13.09 47.99 5.07 22.68"/>
		<path d="M3.47,10.27V4.8H6.42v.85H4.6V7H6.28v.84H4.6v1.6H6.48v.84Z"/>
		<path d="M6.78,4.8H8l.83,4h0l.94-4h1.12L9.44,10.27H8.11Z"/>
		<path d="M11.38,10.27V4.8h2.95v.85H12.51V7h1.68v.84H12.51v1.6h1.88v.84Z"/>
		<path d="M16.23,10.27H15.1V4.8h2.09a1.16,1.16,0,0,1,.92.37,1.5,1.5,0,0,1,.34,1.07,1.64,1.64,0,0,1-.22.88,1.09,1.09,0,0,1-.78.46h0l.26,0a.87.87,0,0,1,.32.13.89.89,0,0,1,.28.32,1.17,1.17,0,0,1,.12.58c0,.08,0,.2,0,.36s0,.32,0,.49,0,.32.05.46a1,1,0,0,0,.06.29H17.45a1.31,1.31,0,0,1-.11-.52c0-.18,0-.36,0-.54V8.75a.89.89,0,0,0-.08-.38A.47.47,0,0,0,17,8.11a.92.92,0,0,0-.49-.1h-.29Zm0-3.1h.5A.51.51,0,0,0,17,7.09a.47.47,0,0,0,.18-.19.8.8,0,0,0,.09-.26,1.41,1.41,0,0,0,0-.28.8.8,0,0,0-.15-.55.57.57,0,0,0-.43-.16h-.5Z"/>
		<path d="M20.17,8.38,18.75,4.8H20l.81,2.31.86-2.31h1.15L21.3,8.38v1.89H20.17Z"/>
		<path d="M25.15,10.36a2.06,2.06,0,0,1-1.08-.23,1.42,1.42,0,0,1-.55-.64,2.38,2.38,0,0,1-.2-.91c0-.33,0-.68,0-1s0-.72,0-1a2.38,2.38,0,0,1,.2-.91A1.39,1.39,0,0,1,24.07,5a2.55,2.55,0,0,1,2.16,0,1.39,1.39,0,0,1,.55.63,2.59,2.59,0,0,1,.2.91q0,.5,0,1c0,.36,0,.71,0,1a2.59,2.59,0,0,1-.2.91,1.42,1.42,0,0,1-.55.64A2.06,2.06,0,0,1,25.15,10.36Zm0-.81a.56.56,0,0,0,.38-.12.79.79,0,0,0,.22-.36,3,3,0,0,0,.1-.63c0-.25,0-.55,0-.9s0-.65,0-.91a3,3,0,0,0-.1-.62.79.79,0,0,0-.22-.36.66.66,0,0,0-.76,0,.72.72,0,0,0-.22.36,3,3,0,0,0-.1.62c0,.26,0,.56,0,.91s0,.65,0,.9a3,3,0,0,0,.1.63.72.72,0,0,0,.22.36A.56.56,0,0,0,25.15,9.55Z"/>
		<path d="M27.92,10.27V4.8h1.53l1.43,3.79h0V4.8H32v5.47H30.47L29,6.27h0v4Z"/>
		<path d="M32.91,10.27V4.8h3v.85H34V7h1.67v.84H34v1.6h1.88v.84Z"/>
	</g>
</svg>