<?xml version="1.0" encoding="UTF-8" standalone="no"?>
<!-- Created with Inkscape (http://www.inkscape.org/) -->
<svg version="1.1" xmlns="http://www.w3.org/2000/svg" xmlns:svg="http://www.w3.org/2000/svg" x="0" y="0" width="39.68" height="59.53" viewBox="0 0 39.68 59.53">
	<g fill="#FFF">
		<polygon points="39.68 0 39.11 0 0.58 0 0 0 0 0.64 0 58.89 0 59.53 0.58 59.53 39.11 59.53 39.68 59.53 39.68 58.89 39.68 0.64 39.68 0 39.68 0"/>
		<path d="M39.11.64V58.89H.58V.64H39.11" fill="#000"/>
		<rect x="2.52" y="2.71" width="34.38" height="9.66"/>
		<rect x="2.5" y="14.47" width="34.4" height="35.51"/>
		<polygon points="2.51 56.79 2.51 52.08 9.41 52.08 9.41 53.18 5.28 53.18 5.28 53.85 8.78 53.85 8.78 54.95 5.28 54.95 5.28 55.69 9.57 55.69 9.57 56.79 2.51 56.79"/>
		<path d="M15.44,53.45a.52.52,0,0,0-.4-.32,2.53,2.53,0,0,0-.72-.09c-.61,0-.88.1-.88.28,0,.7,4.87.26,4.87,2,0,1.09-1.64,1.63-4,1.63s-3.7-.73-3.75-1.58h2.65a.69.69,0,0,0,.46.37,2.52,2.52,0,0,0,.79.12c.7,0,1.16-.12,1.16-.35,0-.71-4.88-.22-4.88-2,0-1,1.56-1.5,3.67-1.5,2.35,0,3.42.66,3.63,1.49Z"/>
		<path d="M22.46,54.12h1.09c.86,0,1.32-.12,1.32-.45s-.47-.49-1.11-.49h-1.3Zm0,1v1.64H19.69V52.08h4c2.82,0,3.75.43,3.75,1.34,0,.55-.44,1-1.43,1.16.9.18,1.44.29,1.44,1.24,0,.62,0,.83.29.83v.14H24.93a1.8,1.8,0,0,1-.14-.82c0-.62-.19-.82-1.48-.82Z"/>
		<path d="M31.91,53.18V54h1.16c.55,0,1-.14,1-.41s-.54-.38-1.13-.38Zm0,1.64v.87h1.21c.69,0,1.21-.08,1.21-.43s-.65-.44-1.53-.44Zm-2.77,2V52.08h4c1.9,0,3.42.25,3.42,1.19,0,.48-.57.84-1.1,1,.91.13,1.4.57,1.4,1.08,0,1.05-1.44,1.42-3.64,1.42Z"/>
	</g>
	<g fill="#000">
		<polygon points="3.75 23.27 14.29 20.43 20.31 34.59 20.36 34.57 18.55 19.29 29.09 16.45 35.67 41.19 29.25 42.91 24.54 25.23 24.49 25.24 26.48 43.65 19.52 45.53 12.11 28.58 12.06 28.59 16.75 46.27 10.33 48 3.75 23.27"/>
		<path d="M3.47,10.26V4.79H5l.73,3.72h0l.76-3.72H8v5.47H7.09V6h0l-.89,4.22H5.27L4.42,6h0v4.22Z"/>
		<path d="M8.46,10.26,9.74,4.79H11l1.26,5.47h-1L11,9.05H9.68l-.27,1.21Zm1.86-4.41h0L9.87,8.21h.92Z"/>
		<path d="M15.08,4.79V5.7H14v4.56H13V5.7H12V4.79Z"/>
		<path d="M18.65,4.79V8.67a2.49,2.49,0,0,1-.08.61,1.5,1.5,0,0,1-.26.54,1.33,1.33,0,0,1-.48.39,1.82,1.82,0,0,1-.75.14A1.47,1.47,0,0,1,15.9,9.9a1.81,1.81,0,0,1-.39-1.23V4.79h1V8.6a1.2,1.2,0,0,0,.16.72.53.53,0,0,0,.43.22.51.51,0,0,0,.47-.25,1.31,1.31,0,0,0,.15-.69V4.79Z"/>
		<path d="M20.38,10.26h-1V4.79H21.2a1,1,0,0,1,.79.37,1.69,1.69,0,0,1,.29,1.06,1.86,1.86,0,0,1-.2.89.87.87,0,0,1-.66.46h0l.22,0a.65.65,0,0,1,.28.13.92.92,0,0,1,.24.32,1.31,1.31,0,0,1,.1.58c0,.08,0,.2,0,.36s0,.32,0,.49,0,.32,0,.46a1.1,1.1,0,0,0,.05.29h-.95a1.5,1.5,0,0,1-.09-.52c0-.18,0-.36,0-.54V8.74a1.08,1.08,0,0,0-.06-.38.49.49,0,0,0-.21-.26.71.71,0,0,0-.42-.1h-.25Zm0-3.1h.43a.41.41,0,0,0,.24-.08.58.58,0,0,0,.15-.19.79.79,0,0,0,.08-.26,1.37,1.37,0,0,0,0-.28.87.87,0,0,0-.13-.55.45.45,0,0,0-.36-.17h-.43Z"/>
		<path d="M23,10.26V4.79h2.52v.84H24V7h1.43v.84H24v1.6h1.6v.84Z"/>
		<path d="M27.52,5.62A5.45,5.45,0,0,0,28,5.24a2.13,2.13,0,0,0,.4-.48h.85v5.5h-1V6a3.7,3.7,0,0,1-.36.33l-.39.29Z"/>
		<path d="M32.64,5.81l-1.09,4.45h-1l1.23-4.64H30.24V4.76h2.4Z"/>
		<path d="M34.12,5.85h.71v1.5h1.08v.84H34.83V9.68h-.71V8.19H33V7.35h1.08Z"/>
	</g>
</svg>