<?xml version="1.0" encoding="UTF-8" standalone="no"?>
<!-- Created with Inkscape (http://www.inkscape.org/) -->
<svg version="1.1" xmlns="http://www.w3.org/2000/svg" xmlns:svg="http://www.w3.org/2000/svg" x="0" y="0" width="39.68" height="59.53" viewBox="0 0 39.68 59.53">
	<g fill="#FFF">
		<polygon points="39.69 0 39.11 0 0.58 0 0 0 0 0.64 0 58.89 0 59.53 0.58 59.53 39.11 59.53 39.69 59.53 39.69 58.89 39.69 0.64 39.69 0 39.69 0"/>
		<path d="M39.11.64V58.89H.58V.64H39.11" fill="#000"/>
		<rect x="2.52" y="2.71" width="34.38" height="9.66"/>
		<rect x="2.5" y="14.47" width="34.4" height="35.51"/>
		<polygon points="2.51 56.79 2.51 52.07 9.41 52.07 9.41 53.18 5.28 53.18 5.28 53.85 8.78 53.85 8.78 54.95 5.28 54.95 5.28 55.69 9.57 55.69 9.57 56.79 2.51 56.79"/>
		<path d="M15.44,53.45a.52.52,0,0,0-.4-.32,2.53,2.53,0,0,0-.72-.09c-.61,0-.88.1-.88.28,0,.69,4.87.26,4.87,2,0,1.09-1.64,1.63-4,1.63s-3.7-.73-3.75-1.58h2.65a.69.69,0,0,0,.46.37,2.52,2.52,0,0,0,.79.12c.69,0,1.16-.12,1.16-.35,0-.71-4.88-.22-4.88-2,0-1,1.56-1.5,3.67-1.5,2.35,0,3.43.66,3.63,1.49Z"/>
		<path d="M22.46,54.12h1.09c.86,0,1.32-.13,1.32-.45s-.47-.49-1.11-.49h-1.3Zm0,1v1.64H19.69V52.07h4c2.82,0,3.75.44,3.75,1.35,0,.55-.44,1-1.43,1.16.9.18,1.44.29,1.44,1.24,0,.61,0,.83.29.83v.14H24.93a1.85,1.85,0,0,1-.14-.83c0-.61-.19-.81-1.48-.81Z"/>
		<path d="M31.91,53.18V54h1.16c.55,0,1-.15,1-.42s-.54-.37-1.13-.37Zm0,1.64v.87h1.21c.69,0,1.21-.08,1.21-.43s-.65-.44-1.53-.44Zm-2.77,2V52.07h4c1.9,0,3.42.26,3.42,1.19,0,.49-.57.84-1.1,1,.91.13,1.4.57,1.4,1.08,0,1.05-1.44,1.42-3.64,1.42Z"/>
	</g>
	<g fill="#000">
		<polygon points="5.37 23.09 31.98 16.45 34.03 23.55 25.48 25.68 31.21 45.6 21.7 47.98 15.96 28.05 7.41 30.18 5.37 23.09"/>
		<polygon points="28.82 4.8 31.08 4.8 33.7 7.79 33.61 6.54 33.61 4.8 35.92 4.8 35.92 10.27 33.66 10.27 31.04 7.29 31.08 8.58 31.13 10.27 28.82 10.27 28.82 4.8"/>
		<polygon points="20.68 4.8 26.67 4.8 26.67 6.07 23.09 6.07 23.09 6.86 26.12 6.86 26.12 8.13 23.09 8.13 23.09 8.99 26.82 8.99 26.82 10.27 20.68 10.27 20.68 4.8"/>
		<polygon points="12.26 4.8 18.25 4.8 18.25 6.07 14.66 6.07 14.66 6.86 17.7 6.86 17.7 8.13 14.66 8.13 14.66 8.99 18.39 8.99 18.39 10.27 12.26 10.27 12.26 4.8"/>
		<polygon points="3.47 4.8 10.21 4.8 10.21 6.23 8.05 6.23 8.05 10.27 5.63 10.27 5.63 6.23 3.47 6.23 3.47 4.8"/>
	</g>
</svg>