<?xml version="1.0" encoding="utf-8"?>
<!-- Generator: Adobe Illustrator 23.0.2, SVG Export Plug-In . SVG Version: 6.00 Build 0)  -->
<svg version="1.1" id="Ebene_1" xmlns="http://www.w3.org/2000/svg" xmlns:xlink="http://www.w3.org/1999/xlink" x="0px" y="0px"
	 width="426.1px" height="519.4px" viewBox="0 0 426.1 519.4" style="enable-background:new 0 0 426.1 519.4;" xml:space="preserve"
	>
<style type="text/css">
	.st0{clip-path:url(#SVGID_2_);fill:#F5A200;}
	.st1{clip-path:url(#SVGID_8_);}
	.st2{clip-path:url(#SVGID_10_);}
	.st3{clip-path:url(#SVGID_12_);fill:#FFFFFF;}
	.st4{clip-path:url(#SVGID_14_);fill:#FFFFFF;}
	.st5{clip-path:url(#SVGID_16_);fill:#FFFFFF;}
	.st6{clip-path:url(#SVGID_18_);fill:#FFFFFF;}
	.st7{clip-path:url(#SVGID_20_);fill-rule:evenodd;clip-rule:evenodd;fill:#FFFFFF;}
	.st8{clip-path:url(#SVGID_22_);fill-rule:evenodd;clip-rule:evenodd;fill:#FFFFFF;}
	.st9{clip-path:url(#SVGID_24_);fill-rule:evenodd;clip-rule:evenodd;fill:#FFFFFF;}
	.st10{clip-path:url(#SVGID_26_);fill-rule:evenodd;clip-rule:evenodd;fill:#FFFFFF;}
	.st11{clip-path:url(#SVGID_28_);fill:#FFFFFF;}
	.st12{clip-path:url(#SVGID_30_);fill-rule:evenodd;clip-rule:evenodd;fill:#FFFFFF;}
	.st13{clip-path:url(#SVGID_32_);fill:#FFFFFF;}
	.st14{clip-path:url(#SVGID_34_);fill:#FFFFFF;}
	.st15{clip-path:url(#SVGID_36_);fill-rule:evenodd;clip-rule:evenodd;fill:#FFFFFF;}
	.st16{fill:#FFFFFF;}
</style>
<g>
	<g>
		<defs>
			<rect id="SVGID_1_" y="-3.6" width="426.1" height="536.1"/>
		</defs>
		<clipPath id="SVGID_2_">
			<use xlink:href="#SVGID_1_"  style="overflow:visible;"/>
		</clipPath>
		<rect y="0" class="st0" width="425.7" height="425.7"/>
	</g>
	<g>
		<defs>
			<rect id="SVGID_3_" y="-3.6" width="426.1" height="536.1"/>
		</defs>
		<clipPath id="SVGID_4_">
			<use xlink:href="#SVGID_3_"  style="overflow:visible;"/>
		</clipPath>
	</g>
	<g>
		<defs>
			<rect id="SVGID_5_" y="-3.6" width="426.1" height="536.1"/>
		</defs>
		<clipPath id="SVGID_6_">
			<use xlink:href="#SVGID_5_"  style="overflow:visible;"/>
		</clipPath>
	</g>
	<g>
		<defs>
			<rect id="SVGID_7_" y="-3.6" width="426.1" height="536.1"/>
		</defs>
		<clipPath id="SVGID_8_">
			<use xlink:href="#SVGID_7_"  style="overflow:visible;"/>
		</clipPath>
		<path class="st1" d="M0,519.4h425.7V0H0 M417.2,417.2H8.5V8.5h408.7V417.2z"/>
	</g>
	<g>
		<defs>
			<rect id="SVGID_9_" y="-3.6" width="426.1" height="536.1"/>
		</defs>
		<clipPath id="SVGID_10_">
			<use xlink:href="#SVGID_9_"  style="overflow:visible;"/>
		</clipPath>
		<path class="st2" d="M381.3,17v3.2h-6.7v21.3h-4V20.2h-6.7V17H381.3z M408.7,41.5h-4V22.2h-0.1l-6.8,19.3h-3.2l-6.4-19.3H388v19.3
			h-4V17h6.3l6.1,18.2h0.1l5.9-18.2h6.2L408.7,41.5L408.7,41.5z"/>
	</g>
	<g>
		<defs>
			<rect id="SVGID_11_" y="-3.6" width="426.1" height="536.1"/>
		</defs>
		<clipPath id="SVGID_12_">
			<use xlink:href="#SVGID_11_"  style="overflow:visible;"/>
		</clipPath>
		<polygon class="st3" points="27,487.5 34.3,487.5 40.9,455.2 41,455.2 48,487.5 54.8,487.5 64.1,447.9 57.6,447.9 51.5,480.2 
			51.4,480.2 44.8,447.9 37.5,447.9 30.8,480.2 30.7,480.2 24.3,447.9 17.8,447.9 		"/>
	</g>
	<g>
		<defs>
			<rect id="SVGID_13_" y="-3.6" width="426.1" height="536.1"/>
		</defs>
		<clipPath id="SVGID_14_">
			<use xlink:href="#SVGID_13_"  style="overflow:visible;"/>
		</clipPath>
		<polygon class="st4" points="74.8,487.5 82.1,487.5 88.7,455.2 88.9,455.2 95.8,487.5 102.6,487.5 111.9,447.9 105.4,447.9 
			99.3,480.2 99.2,480.2 92.6,447.9 85.3,447.9 78.6,480.2 78.5,480.2 72.1,447.9 65.6,447.9 		"/>
	</g>
	<g>
		<defs>
			<rect id="SVGID_15_" y="-3.6" width="426.1" height="536.1"/>
		</defs>
		<clipPath id="SVGID_16_">
			<use xlink:href="#SVGID_15_"  style="overflow:visible;"/>
		</clipPath>
		<polygon class="st5" points="122.6,487.5 129.9,487.5 136.5,455.2 136.6,455.2 143.6,487.5 150.4,487.5 159.7,447.9 153.2,447.9 
			147.1,480.2 147,480.2 140.4,447.9 133.1,447.9 126.4,480.2 126.2,480.2 119.9,447.9 113.4,447.9 		"/>
	</g>
	<g>
		<defs>
			<rect id="SVGID_17_" y="-3.6" width="426.1" height="536.1"/>
		</defs>
		<clipPath id="SVGID_18_">
			<use xlink:href="#SVGID_17_"  style="overflow:visible;"/>
		</clipPath>
		<rect x="163.2" y="479.7" class="st6" width="6.8" height="7.8"/>
	</g>
	<g>
		<defs>
			<rect id="SVGID_19_" y="-3.6" width="426.1" height="536.1"/>
		</defs>
		<clipPath id="SVGID_20_">
			<use xlink:href="#SVGID_19_"  style="overflow:visible;"/>
		</clipPath>
		<path class="st7" d="M185.3,467.7c0-9,1.1-15.5,8-15.5c5.8,0,7.2,6.1,7.2,14.7c0,10.2-1.5,16.2-7.2,16.2
			C186.7,483.2,185.3,475.4,185.3,467.7 M179.5,500.4h6.2V483h0.2c1.4,3.4,4.7,5.5,8.3,5.5c10.2,0,12.9-12.5,12.9-21.5
			c0-11.7-3.5-20.1-12.9-20.1c-4.3,0-7.7,3-8.6,5.9h-0.1v-4.9h-5.9L179.5,500.4L179.5,500.4z"/>
	</g>
	<g>
		<defs>
			<rect id="SVGID_21_" y="-3.6" width="426.1" height="536.1"/>
		</defs>
		<clipPath id="SVGID_22_">
			<use xlink:href="#SVGID_21_"  style="overflow:visible;"/>
		</clipPath>
		<path class="st8" d="M219,463.6v-1.5c0-2.3,0.7-10.3,7.2-10.3c5.5,0,6.9,5.2,6.9,9.7v2.1L219,463.6L219,463.6z M239.6,468.4v-2.5
			c0-8.5-1.1-19-13.2-19c-12.2,0-14.1,11.4-14.1,21.3c0,13.6,4.1,20.3,13.7,20.3c10.8,0,13.3-9.8,13.3-14h-6.2
			c0,2.9-0.8,9.1-6.7,9.1c-7.6,0-7.6-9.1-7.6-15.2L239.6,468.4L239.6,468.4z"/>
	</g>
	<g>
		<defs>
			<rect id="SVGID_23_" y="-3.6" width="426.1" height="536.1"/>
		</defs>
		<clipPath id="SVGID_24_">
			<use xlink:href="#SVGID_23_"  style="overflow:visible;"/>
		</clipPath>
		<path class="st9" d="M258.6,452.2c6.6,0,8,7.8,8,15.5c0,8.1-1.3,14.4-8,14.4c-6.2,0-7.1-8-7.1-14.4
			C251.4,458.3,252.9,452.2,258.6,452.2 M272.4,447.9h-5.9v5h-0.2c-0.8-3.1-4.3-6.1-8.6-6.1c-10,0-12.9,10.1-12.9,20.8
			c0,5.2,0.7,19.7,12.2,19.7c3.9,0,7.6-2,8.9-5.3h0.2v5.2c0,2.7,0.3,8.8-7.7,8.8c-3.2,0-6-1.4-6.3-5H246c1,9.9,10.5,9.9,13,9.9
			c8,0,13.4-4.3,13.4-16.1L272.4,447.9L272.4,447.9z"/>
	</g>
	<g>
		<defs>
			<rect id="SVGID_25_" y="-3.6" width="426.1" height="536.1"/>
		</defs>
		<clipPath id="SVGID_26_">
			<use xlink:href="#SVGID_25_"  style="overflow:visible;"/>
		</clipPath>
		<path class="st10" d="M280.9,487.5h6.2v-39.5h-6.2V487.5z M280.9,441.9h6.2v-7.1h-6.2V441.9z"/>
	</g>
	<g>
		<defs>
			<rect id="SVGID_27_" y="-3.6" width="426.1" height="536.1"/>
		</defs>
		<clipPath id="SVGID_28_">
			<use xlink:href="#SVGID_27_"  style="overflow:visible;"/>
		</clipPath>
		<rect x="297" y="479.7" class="st11" width="6.8" height="7.8"/>
	</g>
	<g>
		<defs>
			<rect id="SVGID_29_" y="-3.6" width="426.1" height="536.1"/>
		</defs>
		<clipPath id="SVGID_30_">
			<use xlink:href="#SVGID_29_"  style="overflow:visible;"/>
		</clipPath>
		<path class="st12" d="M313.7,487.5h6.2v-39.5h-6.2V487.5z M313.7,441.9h6.2v-7.1h-6.2V441.9z"/>
	</g>
	<g>
		<defs>
			<rect id="SVGID_31_" y="-3.6" width="426.1" height="536.1"/>
		</defs>
		<clipPath id="SVGID_32_">
			<use xlink:href="#SVGID_31_"  style="overflow:visible;"/>
		</clipPath>
		<path class="st13" d="M328.3,487.5h6.2v-27.3c0-5.8,4.5-8,7.8-8c5.6,0,5.8,4.9,5.8,8v27.3h6.2v-28c0-4.6,0-12.5-10.4-12.5
			c-3.8,0-8,2.1-9.6,5.7h-0.2v-4.7h-5.9L328.3,487.5L328.3,487.5z"/>
	</g>
	<g>
		<defs>
			<rect id="SVGID_33_" y="-3.6" width="426.1" height="536.1"/>
		</defs>
		<clipPath id="SVGID_34_">
			<use xlink:href="#SVGID_33_"  style="overflow:visible;"/>
		</clipPath>
		<path class="st14" d="M364.3,487.5h6.2v-34.6h6.8v-4.9h-6.8v-4.6c0-2.7,1.3-3.8,4-3.8h2.9v-5.3h-4.5c-6,0-8.6,3.1-8.6,9.1v4.6
			h-5.7v4.9h5.7V487.5z"/>
	</g>
	<g>
		<defs>
			<rect id="SVGID_35_" y="-3.6" width="426.1" height="536.1"/>
		</defs>
		<clipPath id="SVGID_36_">
			<use xlink:href="#SVGID_35_"  style="overflow:visible;"/>
		</clipPath>
		<path class="st15" d="M379.6,467.7c0,11.1,2.8,20.8,14.2,20.8c11.4,0,14.2-9.7,14.2-20.8c0-11.1-2.8-20.8-14.2-20.8
			C382.5,446.9,379.6,456.6,379.6,467.7 M393.7,483.6c-6.3,0-7.6-7.4-7.6-15.9c0-8.6,1.3-15.9,7.6-15.9c6.6,0,7.9,7.4,7.9,15.9
			C401.6,476.2,400.3,483.6,393.7,483.6"/>
	</g>
</g>
<polygon class="st16" points="189.7,54.8 249.9,54.8 249.9,155.4 241.7,274.8 197.8,274.8 189.7,155.4 "/>
<polyline class="st16" points="189.7,360.1 189.7,301.9 249.9,301.9 249.9,360.1 "/>
</svg>
