<?xml version="1.0" encoding="UTF-8" standalone="no"?>
<!-- Created with Inkscape (http://www.inkscape.org/) -->

<svg
   version="1.1"
   id="svg1"
   width="1406.25"
   height="1406.25"
   viewBox="0 0 133.10523 133.10517"
   sodipodi:docname="USK_Sticker_09_EN.svg"
   inkscape:version="1.3.2 (091e20ef0f, 2023-11-25)"
   xmlns:inkscape="http://www.inkscape.org/namespaces/inkscape"
   xmlns:sodipodi="http://sodipodi.sourceforge.net/DTD/sodipodi-0.dtd"
   xmlns="http://www.w3.org/2000/svg"
   xmlns:svg="http://www.w3.org/2000/svg">
  <defs
     id="defs1" />
  <sodipodi:namedview
     id="namedview1"
     pagecolor="#ffffff"
     bordercolor="#000000"
     borderopacity="0.25"
     inkscape:showpageshadow="2"
     inkscape:pageopacity="0.0"
     inkscape:pagecheckerboard="0"
     inkscape:deskcolor="#d1d1d1"
     inkscape:zoom="2.2087815"
     inkscape:cx="299.71276"
     inkscape:cy="1008.4746"
     inkscape:window-width="1280"
     inkscape:window-height="717"
     inkscape:window-x="0"
     inkscape:window-y="0"
     inkscape:window-maximized="1"
     inkscape:current-layer="g1" />
  <g
     id="g1"
     inkscape:groupmode="layer"
     inkscape:label="1"
     transform="translate(-599.79284,-932.60299)">
    <path
       id="path96"
       d="m 459.1553,141.5625 h 81.2075 c 4.6398,0 8.4357,-4.1927 8.4357,-9.3178 V 52.8015 c 0,-5.125 -3.7959,-9.3178 -8.4357,-9.3178 h -81.2075 c -4.6397,0 -8.4356,4.1928 -8.4356,9.3178 v 79.4432 c 0,5.1251 3.7959,9.3178 8.4356,9.3178"
       style="fill:#b01c23;fill-opacity:1;fill-rule:evenodd;stroke:none"
       transform="matrix(1.3333333,0,0,-1.3333333,0,1122.5197)" />
    <path
       id="path97"
       d="m 459.1553,141.5625 h 81.2075 c 4.6398,0 8.4357,-4.1927 8.4357,-9.3178 V 52.8015 c 0,-5.125 -3.7959,-9.3178 -8.4357,-9.3178 h -81.2075 c -4.6397,0 -8.4356,4.1928 -8.4356,9.3178 v 79.4432 c 0,5.1251 3.7959,9.3178 8.4356,9.3178 z"
       style="fill:none;stroke:#ed1c24;stroke-width:1.7501;stroke-linecap:butt;stroke-linejoin:miter;stroke-miterlimit:10;stroke-dasharray:none;stroke-opacity:1"
       transform="matrix(1.3333333,0,0,-1.3333333,0,1122.5197)" />
    <path
       id="path98"
       d="m 459.1553,141.5625 h 81.2075 c 4.6398,0 8.4357,-4.1927 8.4357,-9.3178 V 52.8015 c 0,-5.125 -3.7959,-9.3178 -8.4357,-9.3178 h -81.2075 c -4.6397,0 -8.4356,4.1928 -8.4356,9.3178 v 79.4432 c 0,5.1251 3.7959,9.3178 8.4356,9.3178 z"
       style="fill:none;stroke:#ed1c24;stroke-width:1.7501;stroke-linecap:butt;stroke-linejoin:miter;stroke-miterlimit:10;stroke-dasharray:none;stroke-opacity:1"
       transform="matrix(1.3333333,0,0,-1.3333333,0,1122.5197)" />
    <path
       id="path99"
       d="m 502.8786,133.4225 37.3153,-36.3654 c 2.1319,-2.0775 1.9987,-5.7041 -0.2962,-8.0589 L 504.3226,52.4937 c -2.2949,-2.3551 -5.9168,-2.5818 -8.0487,-0.5043 l -37.3153,36.3654 c -2.1319,2.0775 -1.9987,5.7041 0.2962,8.0589 l 35.5751,36.5045 c 2.295,2.3551 5.9168,2.5818 8.0487,0.5043"
       style="fill:#ed1c24;fill-opacity:1;fill-rule:evenodd;stroke:none"
       transform="matrix(1.3333333,0,0,-1.3333333,0,1122.5197)" />
    <path
       id="path100"
       d="m 502.8786,133.4225 37.3153,-36.3654 c 2.1319,-2.0775 1.9987,-5.7041 -0.2962,-8.0589 L 504.3226,52.4937 c -2.2949,-2.3551 -5.9168,-2.5818 -8.0487,-0.5043 l -37.3153,36.3654 c -2.1319,2.0775 -1.9987,5.7041 0.2962,8.0589 l 35.5751,36.5045 c 2.295,2.3551 5.9168,2.5818 8.0487,0.5043 z"
       style="fill:none;stroke:#231f20;stroke-width:1.0001;stroke-linecap:butt;stroke-linejoin:miter;stroke-miterlimit:10;stroke-dasharray:none;stroke-opacity:1"
       transform="matrix(1.3333333,0,0,-1.3333333,0,1122.5197)" />
    <path
       id="path101"
       d="m 502.8786,133.4225 37.3153,-36.3654 c 2.1319,-2.0775 1.9987,-5.7041 -0.2962,-8.0589 L 504.3226,52.4937 c -2.2949,-2.3551 -5.9168,-2.5818 -8.0487,-0.5043 l -37.3153,36.3654 c -2.1319,2.0775 -1.9987,5.7041 0.2962,8.0589 l 35.5751,36.5045 c 2.295,2.3551 5.9168,2.5818 8.0487,0.5043 z"
       style="fill:none;stroke:#231f20;stroke-width:1.0001;stroke-linecap:butt;stroke-linejoin:miter;stroke-miterlimit:10;stroke-dasharray:none;stroke-opacity:1"
       transform="matrix(1.3333333,0,0,-1.3333333,0,1122.5197)" />
    <path
       id="path102"
       d="m 488.1342,122.5037 h 1.5894 v -4.2644 c 0,-0.6766 0.0201,-1.1166 0.0587,-1.3164 0.0677,-0.3226 0.231,-0.5811 0.4858,-0.7756 0.2566,-0.1961 0.6069,-0.2933 1.0505,-0.2933 0.451,0 0.792,0.0918 1.0211,0.2769 0.2293,0.1834 0.3668,0.4107 0.4127,0.6783 0.0476,0.2696 0.0695,0.7149 0.0695,1.3383 v 4.3562 h 1.5896 v -4.136 c 0,-0.9462 -0.0422,-1.6135 -0.1284,-2.0041 -0.0862,-0.3903 -0.2438,-0.7186 -0.4748,-0.9881 -0.231,-0.2676 -0.5408,-0.4822 -0.9258,-0.6415 -0.3869,-0.1596 -0.8929,-0.2384 -1.5162,-0.2384 -0.7518,0 -1.3218,0.0862 -1.7105,0.2602 -0.3886,0.1743 -0.695,0.3997 -0.9204,0.6766 -0.2256,0.2767 -0.3739,0.5684 -0.4456,0.8725 -0.1043,0.451 -0.1556,1.1166 -0.1556,1.9985 z"
       style="fill:#231f20;fill-opacity:1;fill-rule:nonzero;stroke:none"
       transform="matrix(1.3333333,0,0,-1.3333333,0,1122.5197)" />
    <path
       id="path103"
       d="m 495.6854,117.1905 1.5475,0.1522 c 0.0918,-0.5207 0.2806,-0.902 0.5666,-1.1458 0.284,-0.242 0.6673,-0.3648 1.1511,-0.3648 0.5117,0 0.8986,0.108 1.1569,0.3263 0.2605,0.2163 0.3906,0.4694 0.3906,0.7591 0,0.1868 -0.055,0.3447 -0.165,0.4748 -0.1083,0.1318 -0.2988,0.2455 -0.572,0.341 -0.1851,0.0661 -0.6106,0.1797 -1.2722,0.3447 -0.8527,0.2106 -1.4502,0.4711 -1.7932,0.779 -0.4839,0.4328 -0.726,0.9606 -0.726,1.5843 0,0.4013 0.1137,0.7752 0.341,1.1256 0.2274,0.3484 0.5556,0.614 0.9828,0.7974 0.4289,0.1814 0.9439,0.2732 1.5491,0.2732 0.9899,0 1.7326,-0.2162 2.2329,-0.6491 0.4989,-0.4345 0.7611,-1.012 0.7866,-1.7362 l -1.5894,-0.0695 c -0.068,0.4051 -0.2146,0.6965 -0.4382,0.8725 -0.2237,0.1781 -0.5593,0.2659 -1.0066,0.2659 -0.462,0 -0.8249,-0.0935 -1.0854,-0.2843 -0.1686,-0.1207 -0.2528,-0.284 -0.2528,-0.4875 0,-0.1871 0.0788,-0.3464 0.2364,-0.4785 0.1998,-0.1687 0.6874,-0.3447 1.4612,-0.5261 0.7736,-0.1834 1.3456,-0.3722 1.7158,-0.5667 0.3705,-0.1961 0.6602,-0.462 0.8711,-0.8011 0.2089,-0.3393 0.3135,-0.7571 0.3135,-1.254 0,-0.451 -0.1247,-0.8745 -0.3758,-1.2668 -0.2512,-0.3943 -0.6052,-0.6874 -1.0636,-0.8782 -0.4581,-0.1925 -1.0301,-0.288 -1.7141,-0.288 -0.9955,0 -1.76,0.2293 -2.2935,0.6894 -0.5335,0.4604 -0.8524,1.1313 -0.9553,2.0112"
       style="fill:#231f20;fill-opacity:1;fill-rule:nonzero;stroke:none"
       transform="matrix(1.3333333,0,0,-1.3333333,0,1122.5197)" />
    <path
       id="path104"
       d="m 503.4464,114.6294 v 7.8743 h 1.5894 v -3.4962 l 3.2119,3.4962 h 2.1379 l -2.9647,-3.0673 3.126,-4.807 h -2.0571 l -2.1634,3.6961 -1.2906,-1.3164 v -2.3797 z"
       style="fill:#231f20;fill-opacity:1;fill-rule:nonzero;stroke:none"
       transform="matrix(1.3333333,0,0,-1.3333333,0,1122.5197)" />
    <path
       id="path105"
       d="m 496.4672,110.448 -0.8714,0.1576 c 0.0978,0.3512 0.2659,0.61 0.5052,0.7793 0.2401,0.168 0.595,0.2531 1.0661,0.2531 0.4294,0 0.748,-0.0513 0.9578,-0.1528 0.2089,-0.1015 0.3572,-0.2299 0.4422,-0.3861 0.0853,-0.1565 0.1284,-0.4422 0.1284,-0.86 l -0.0105,-1.1211 c 0,-0.3183 0.0151,-0.5542 0.0465,-0.7058 0.0306,-0.1506 0.0888,-0.3138 0.1729,-0.4865 h -0.951 c -0.0244,0.0641 -0.0558,0.1588 -0.0921,0.2835 -0.015,0.0573 -0.0267,0.0944 -0.0337,0.1131 -0.1645,-0.1599 -0.3396,-0.2786 -0.5262,-0.3592 -0.1868,-0.0793 -0.3863,-0.119 -0.5986,-0.119 -0.3734,0 -0.6684,0.1015 -0.883,0.3033 -0.216,0.203 -0.3232,0.4598 -0.3232,0.7699 0,0.2044 0.0491,0.3875 0.1469,0.5485 0.098,0.161 0.2358,0.2835 0.4118,0.3685 0.1764,0.0853 0.4318,0.1599 0.7643,0.2239 0.4478,0.0842 0.7594,0.1636 0.932,0.2359 v 0.0955 c 0,0.1857 -0.0454,0.3164 -0.1364,0.3954 -0.0909,0.0783 -0.2624,0.118 -0.5156,0.118 -0.1715,0 -0.3047,-0.0338 -0.4002,-0.1015 -0.0956,-0.0664 -0.1727,-0.1843 -0.2322,-0.3535 z m 1.2844,-0.7792 c -0.1225,-0.0409 -0.3172,-0.0899 -0.5845,-0.1472 -0.2659,-0.0569 -0.4397,-0.1131 -0.5224,-0.1666 -0.125,-0.0899 -0.188,-0.2019 -0.188,-0.3385 0,-0.1352 0.0502,-0.2509 0.1505,-0.3487 0.1004,-0.098 0.2274,-0.1471 0.3827,-0.1471 0.1738,0 0.3382,0.0573 0.4958,0.1704 0.1168,0.0862 0.1925,0.1925 0.2288,0.3183 0.0255,0.0819 0.0371,0.2381 0.0371,0.468 z"
       style="fill:#231f20;fill-opacity:1;fill-rule:nonzero;stroke:none"
       transform="matrix(1.3333333,0,0,-1.3333333,0,1122.5197)" />
    <path
       id="path106"
       d="m 499.602,107.9257 v 5.0108 h 0.9601 v -1.8048 c 0.2963,0.3371 0.6463,0.5063 1.0523,0.5063 0.4422,0 0.8073,-0.161 1.0978,-0.4808 0.2894,-0.3194 0.434,-0.7792 0.434,-1.3787 0,-0.6197 -0.148,-1.0979 -0.4433,-1.4327 -0.2951,-0.335 -0.6534,-0.5017 -1.0744,-0.5017 -0.2077,0 -0.4118,0.0513 -0.6137,0.155 -0.2018,0.1041 -0.3756,0.2569 -0.5215,0.4598 v -0.5332 z m 0.9531,1.8936 c 0,-0.3759 0.0595,-0.6534 0.1774,-0.8343 0.1667,-0.2554 0.3872,-0.3826 0.6639,-0.3826 0.2112,0 0.392,0.091 0.5411,0.2718 0.1494,0.1809 0.2242,0.4666 0.2242,0.8564 0,0.4141 -0.0759,0.714 -0.2265,0.8971 -0.1493,0.1831 -0.3418,0.2753 -0.5774,0.2753 -0.2299,0 -0.4212,-0.0899 -0.574,-0.2682 -0.1528,-0.1797 -0.2287,-0.4504 -0.2287,-0.8155"
       style="fill:#231f20;fill-opacity:1;fill-rule:nonzero;stroke:none"
       transform="matrix(1.3333333,0,0,-1.3333333,0,1122.5197)" />
    <path
       id="path107"
       d="m 493.5217,72.627 h -5.4867 v 20.6867 c -2.0067,-1.8799 -4.3665,-3.2666 -7.0866,-4.1601 v 4.9802 c 1.4267,0.4665 2.9868,1.3532 4.6667,2.66 1.68,1.3133 2.8335,2.8397 3.4534,4.5865 h 4.4532 z"
       style="fill:#231f20;fill-opacity:1;fill-rule:nonzero;stroke:none"
       transform="matrix(1.3333333,0,0,-1.3333333,0,1122.5197)" />
    <path
       id="path108"
       d="m 503.6567,88.0736 c -1.4198,0.6001 -2.4534,1.4267 -3.0931,2.4735 -0.6469,1.0465 -0.9667,2.2 -0.9667,3.4466 0,2.1334 0.7399,3.8999 2.2332,5.2932 1.4933,1.3935 3.6133,2.0934 6.3601,2.0934 2.7198,0 4.8333,-0.6999 6.3331,-2.0934 1.5069,-1.3933 2.2601,-3.1598 2.2601,-5.2932 0,-1.3266 -0.3467,-2.5066 -1.04,-3.5467 -0.6866,-1.0332 -1.66,-1.8266 -2.9067,-2.3734 1.5869,-0.6333 2.7936,-1.5665 3.6202,-2.7933 0.8265,-1.22 1.2398,-2.6334 1.2398,-4.2332 0,-2.6468 -0.8399,-4.7934 -2.5265,-6.4469 -1.6866,-1.6531 -3.9268,-2.4797 -6.7266,-2.4797 -2.6067,0 -4.7736,0.6797 -6.5067,2.0466 -2.0469,1.62 -3.0668,3.8333 -3.0668,6.6467 0,1.5465 0.3867,2.9664 1.1535,4.2667 0.7664,1.2931 1.98,2.2932 3.6331,2.9931 z m 1.1333,5.5267 c 0,-1.0933 0.3067,-1.9466 0.9267,-2.5532 0.6202,-0.6134 1.44,-0.9201 2.4735,-0.9201 1.04,0 1.8734,0.3067 2.4998,0.9266 0.6203,0.62 0.9335,1.4735 0.9335,2.5668 0,1.0332 -0.3067,1.8533 -0.9266,2.4732 -0.62,0.62 -1.4335,0.9267 -2.4534,0.9267 -1.0534,0 -1.8933,-0.3132 -2.52,-0.9332 -0.62,-0.6267 -0.9335,-1.4533 -0.9335,-2.4868 z m -0.5065,-12.2599 c 0,-1.5134 0.3866,-2.6934 1.1599,-3.5401 0.7733,-0.8465 1.7402,-1.2666 2.9001,-1.2666 1.1333,0 2.0733,0.4065 2.8134,1.2201 0.7399,0.8132 1.1132,1.9865 1.1132,3.5265 0,1.34 -0.3799,2.42 -1.1333,3.2332 -0.7535,0.8136 -1.7133,1.2201 -2.8732,1.2201 -1.3402,0 -2.34,-0.4666 -2.9934,-1.3865 -0.6602,-0.9269 -0.9867,-1.9267 -0.9867,-3.0067"
       style="fill:#231f20;fill-opacity:1;fill-rule:nonzero;stroke:none"
       transform="matrix(1.3333333,0,0,-1.3333333,0,1122.5197)" />
  </g>
</svg>
