<?xml version="1.0" encoding="UTF-8" standalone="no"?>
<!-- Created with Inkscape (http://www.inkscape.org/) -->

<svg
   version="1.1"
   id="svg1"
   width="1406.25"
   height="1406.25"
   viewBox="0 0 133.10523 133.10523"
   sodipodi:docname="USK_Sticker_09_EN.svg"
   inkscape:version="1.3.2 (091e20ef0f, 2023-11-25)"
   xmlns:inkscape="http://www.inkscape.org/namespaces/inkscape"
   xmlns:sodipodi="http://sodipodi.sourceforge.net/DTD/sodipodi-0.dtd"
   xmlns="http://www.w3.org/2000/svg"
   xmlns:svg="http://www.w3.org/2000/svg">
  <defs
     id="defs1" />
  <sodipodi:namedview
     id="namedview1"
     pagecolor="#ffffff"
     bordercolor="#000000"
     borderopacity="0.25"
     inkscape:showpageshadow="2"
     inkscape:pageopacity="0.0"
     inkscape:pagecheckerboard="0"
     inkscape:deskcolor="#d1d1d1"
     inkscape:zoom="2.2087815"
     inkscape:cx="299.71276"
     inkscape:cy="1008.4746"
     inkscape:window-width="1280"
     inkscape:window-height="717"
     inkscape:window-x="0"
     inkscape:window-y="0"
     inkscape:window-maximized="1"
     inkscape:current-layer="g1" />
  <g
     id="g1"
     inkscape:groupmode="layer"
     inkscape:label="1"
     transform="translate(-598.33618,-772.47)">
    <path
       id="path72"
       d="m 458.0629,261.6622 h 81.2075 c 4.6397,0 8.4356,-4.1928 8.4356,-9.3178 v -79.4432 c 0,-5.125 -3.7959,-9.3178 -8.4356,-9.3178 h -81.2075 c -4.6398,0 -8.4357,4.1928 -8.4357,9.3178 v 79.4432 c 0,5.125 3.7959,9.3178 8.4357,9.3178"
       style="fill:#317eaa;fill-opacity:1;fill-rule:evenodd;stroke:none"
       transform="matrix(1.3333333,0,0,-1.3333333,0,1122.5197)" />
    <path
       id="path73"
       d="m 458.0629,261.6622 h 81.2075 c 4.6397,0 8.4356,-4.1928 8.4356,-9.3178 v -79.4432 c 0,-5.125 -3.7959,-9.3178 -8.4356,-9.3178 h -81.2075 c -4.6398,0 -8.4357,4.1928 -8.4357,9.3178 v 79.4432 c 0,5.125 3.7959,9.3178 8.4357,9.3178 z"
       style="fill:none;stroke:#38a7e4;stroke-width:1.7501;stroke-linecap:butt;stroke-linejoin:miter;stroke-miterlimit:10;stroke-dasharray:none;stroke-opacity:1"
       transform="matrix(1.3333333,0,0,-1.3333333,0,1122.5197)" />
    <path
       id="path74"
       d="m 458.0629,261.6622 h 81.2075 c 4.6397,0 8.4356,-4.1928 8.4356,-9.3178 v -79.4432 c 0,-5.125 -3.7959,-9.3178 -8.4356,-9.3178 h -81.2075 c -4.6398,0 -8.4357,4.1928 -8.4357,9.3178 v 79.4432 c 0,5.125 3.7959,9.3178 8.4357,9.3178 z"
       style="fill:none;stroke:#38a7e4;stroke-width:1.7501;stroke-linecap:butt;stroke-linejoin:miter;stroke-miterlimit:10;stroke-dasharray:none;stroke-opacity:1"
       transform="matrix(1.3333333,0,0,-1.3333333,0,1122.5197)" />
    <path
       id="path75"
       d="m 501.7861,253.5222 37.3153,-36.3654 c 2.132,-2.0775 1.9987,-5.7041 -0.2962,-8.0589 l -35.5751,-36.5045 c -2.2949,-2.3551 -5.9167,-2.5818 -8.0487,-0.5043 l -37.3153,36.3654 c -2.1319,2.0775 -1.9987,5.7041 0.2963,8.0589 l 35.575,36.5045 c 2.295,2.355 5.9168,2.5818 8.0487,0.5043"
       style="fill:#38a7e4;fill-opacity:1;fill-rule:evenodd;stroke:none"
       transform="matrix(1.3333333,0,0,-1.3333333,0,1122.5197)" />
    <path
       id="path76"
       d="m 501.7861,253.5222 37.3153,-36.3654 c 2.132,-2.0775 1.9987,-5.7041 -0.2962,-8.0589 l -35.5751,-36.5045 c -2.2949,-2.3551 -5.9167,-2.5818 -8.0487,-0.5043 l -37.3153,36.3654 c -2.1319,2.0775 -1.9987,5.7041 0.2963,8.0589 l 35.575,36.5045 c 2.295,2.355 5.9168,2.5818 8.0487,0.5043 z"
       style="fill:none;stroke:#231f20;stroke-width:1.0001;stroke-linecap:butt;stroke-linejoin:miter;stroke-miterlimit:10;stroke-dasharray:none;stroke-opacity:1"
       transform="matrix(1.3333333,0,0,-1.3333333,0,1122.5197)" />
    <path
       id="path77"
       d="m 501.7861,253.5222 37.3153,-36.3654 c 2.132,-2.0775 1.9987,-5.7041 -0.2962,-8.0589 l -35.5751,-36.5045 c -2.2949,-2.3551 -5.9167,-2.5818 -8.0487,-0.5043 l -37.3153,36.3654 c -2.1319,2.0775 -1.9987,5.7041 0.2963,8.0589 l 35.575,36.5045 c 2.295,2.355 5.9168,2.5818 8.0487,0.5043 z"
       style="fill:none;stroke:#231f20;stroke-width:1.0001;stroke-linecap:butt;stroke-linejoin:miter;stroke-miterlimit:10;stroke-dasharray:none;stroke-opacity:1"
       transform="matrix(1.3333333,0,0,-1.3333333,0,1122.5197)" />
    <path
       id="path78"
       d="m 487.0417,242.6034 h 1.5894 v -4.2644 c 0,-0.6766 0.0201,-1.1166 0.0587,-1.3164 0.0677,-0.3226 0.231,-0.5811 0.4859,-0.7756 0.2565,-0.1961 0.6069,-0.2934 1.0505,-0.2934 0.451,0 0.792,0.0919 1.021,0.277 0.2293,0.1834 0.3668,0.4107 0.4127,0.6783 0.0477,0.2696 0.0695,0.7149 0.0695,1.3382 v 4.3563 h 1.5897 v -4.136 c 0,-0.9462 -0.0423,-1.6135 -0.1285,-2.0041 -0.0861,-0.3903 -0.2437,-0.7186 -0.4748,-0.9882 -0.231,-0.2675 -0.5408,-0.4821 -0.9258,-0.6414 -0.3869,-0.1596 -0.8929,-0.2384 -1.5162,-0.2384 -0.7518,0 -1.3218,0.0861 -1.7104,0.2602 -0.3887,0.1743 -0.6951,0.3997 -0.9204,0.6766 -0.2257,0.2767 -0.3739,0.5684 -0.4456,0.8725 -0.1044,0.451 -0.1557,1.1166 -0.1557,1.9985 z"
       style="fill:#231f20;fill-opacity:1;fill-rule:nonzero;stroke:none"
       transform="matrix(1.3333333,0,0,-1.3333333,0,1122.5197)" />
    <path
       id="path79"
       d="m 494.5929,237.2902 1.5475,0.1522 c 0.0918,-0.5207 0.2806,-0.902 0.5666,-1.1458 0.2841,-0.242 0.6673,-0.3648 1.1512,-0.3648 0.5116,0 0.8986,0.108 1.1568,0.3263 0.2605,0.2163 0.3906,0.4694 0.3906,0.7591 0,0.1868 -0.055,0.3447 -0.165,0.4748 -0.1083,0.1318 -0.2987,0.2455 -0.572,0.341 -0.1851,0.0661 -0.6106,0.1797 -1.2722,0.3447 -0.8527,0.2106 -1.4502,0.4711 -1.7932,0.779 -0.4839,0.4328 -0.7259,0.9606 -0.7259,1.5842 0,0.4014 0.1136,0.7753 0.341,1.1257 0.2273,0.3484 0.5556,0.614 0.9827,0.7974 0.4289,0.1814 0.944,0.2732 1.5492,0.2732 0.9898,0 1.7325,-0.2163 2.2328,-0.6491 0.4989,-0.4346 0.7611,-1.012 0.7866,-1.7362 l -1.5893,-0.0695 c -0.0681,0.4051 -0.2146,0.6965 -0.4383,0.8725 -0.2236,0.178 -0.5593,0.2659 -1.0066,0.2659 -0.462,0 -0.8248,-0.0935 -1.0854,-0.2843 -0.1686,-0.1208 -0.2528,-0.284 -0.2528,-0.4876 0,-0.187 0.0788,-0.3463 0.2364,-0.4784 0.1998,-0.1687 0.6874,-0.3447 1.4613,-0.5262 0.7735,-0.1834 1.3456,-0.3721 1.7158,-0.5666 0.3705,-0.1962 0.6602,-0.462 0.8711,-0.8011 0.2089,-0.3393 0.3135,-0.7571 0.3135,-1.254 0,-0.451 -0.1247,-0.8745 -0.3759,-1.2668 -0.2511,-0.3943 -0.6052,-0.6874 -1.0636,-0.8782 -0.458,-0.1925 -1.0301,-0.288 -1.7141,-0.288 -0.9955,0 -1.76,0.2293 -2.2935,0.6894 -0.5335,0.4603 -0.8524,1.1313 -0.9553,2.0112"
       style="fill:#231f20;fill-opacity:1;fill-rule:nonzero;stroke:none"
       transform="matrix(1.3333333,0,0,-1.3333333,0,1122.5197)" />
    <path
       id="path80"
       d="m 502.3539,234.7291 v 7.8743 h 1.5894 v -3.4962 l 3.2119,3.4962 h 2.1379 l -2.9647,-3.0673 3.126,-4.807 h -2.0571 l -2.1634,3.6961 -1.2906,-1.3164 v -2.3797 z"
       style="fill:#231f20;fill-opacity:1;fill-rule:nonzero;stroke:none"
       transform="matrix(1.3333333,0,0,-1.3333333,0,1122.5197)" />
    <path
       id="path81"
       d="m 481.7917,190.5471 h 0.4569 v 0.235 c 0,0.2611 0.0281,0.457 0.0842,0.586 0.0559,0.1292 0.1579,0.2341 0.307,0.3152 0.15,0.0808 0.3388,0.121 0.5669,0.121 0.235,0 0.4641,-0.0351 0.6891,-0.1052 l -0.1111,-0.5748 c -0.1309,0.032 -0.2571,0.0468 -0.3781,0.0468 -0.1199,0 -0.205,-0.027 -0.2568,-0.0828 -0.0522,-0.0561 -0.0771,-0.163 -0.0771,-0.3212 v -0.22 h 0.6151 v -0.6468 h -0.6151 v -2.4642 h -0.8241 v 2.4642 h -0.4569 z"
       style="fill:#231f20;fill-opacity:1;fill-rule:nonzero;stroke:none"
       transform="matrix(1.3333333,0,0,-1.3333333,0,1122.5197)" />
    <path
       id="path82"
       d="m 484.9387,187.4361 h -0.8229 v 3.111 h 0.7639 v -0.4419 c 0.131,0.2089 0.2492,0.347 0.3532,0.413 0.1049,0.0661 0.2228,0.1001 0.3561,0.1001 0.1879,0 0.3679,-0.0522 0.542,-0.1562 l -0.2552,-0.7169 c -0.138,0.089 -0.267,0.1338 -0.386,0.1338 -0.116,0 -0.2129,-0.0309 -0.2929,-0.0949 -0.081,-0.063 -0.1431,-0.1781 -0.189,-0.3439 -0.0459,-0.1661 -0.0692,-0.5142 -0.0692,-1.0431 z"
       style="fill:#231f20;fill-opacity:1;fill-rule:nonzero;stroke:none"
       transform="matrix(1.3333333,0,0,-1.3333333,0,1122.5197)" />
    <path
       id="path83"
       d="m 488.2867,188.4263 0.8209,-0.1372 c -0.1057,-0.3011 -0.2718,-0.5301 -0.4997,-0.6869 -0.2271,-0.1581 -0.5122,-0.2361 -0.8541,-0.2361 -0.5411,0 -0.9411,0.176 -1.201,0.5301 -0.205,0.2829 -0.3082,0.6409 -0.3082,1.0721 0,0.5159 0.1352,0.9198 0.4051,1.2118 0.269,0.2922 0.61,0.4382 1.0222,0.4382 0.4629,0 0.828,-0.1531 1.0958,-0.4592 0.2671,-0.3059 0.3952,-0.7739 0.3841,-1.4049 h -2.063 c 0.006,-0.244 0.072,-0.4339 0.199,-0.5692 0.127,-0.1357 0.286,-0.2038 0.4751,-0.2038 0.1289,0 0.2369,0.0349 0.3248,0.1049 0.0882,0.0712 0.1551,0.184 0.199,0.3402 z m 0.0471,0.8319 c -0.006,0.239 -0.0669,0.4198 -0.184,0.544 -0.1171,0.1239 -0.2599,0.186 -0.428,0.186 -0.18,0 -0.328,-0.0661 -0.4451,-0.1971 -0.117,-0.1301 -0.1749,-0.3081 -0.1729,-0.5329 z"
       style="fill:#231f20;fill-opacity:1;fill-rule:nonzero;stroke:none"
       transform="matrix(1.3333333,0,0,-1.3333333,0,1122.5197)" />
    <path
       id="path84"
       d="m 489.8225,190.9692 v 0.762 h 0.8232 v -0.762 z m 0,-3.5331 v 3.111 h 0.8232 v -3.111 z"
       style="fill:#231f20;fill-opacity:1;fill-rule:nonzero;stroke:none"
       transform="matrix(1.3333333,0,0,-1.3333333,0,1122.5197)" />
    <path
       id="path85"
       d="m 491.4136,187.2312 0.9403,-0.114 c 0.0158,-0.11 0.0518,-0.1851 0.108,-0.2262 0.0779,-0.0589 0.2018,-0.0879 0.3687,-0.0879 0.2152,0 0.3762,0.0321 0.4842,0.097 0.072,0.0431 0.127,0.112 0.1638,0.2081 0.0253,0.068 0.038,0.1938 0.038,0.3778 v 0.4541 c -0.2457,-0.3359 -0.557,-0.504 -0.932,-0.504 -0.4178,0 -0.7489,0.1769 -0.993,0.5301 -0.1907,0.2801 -0.2868,0.627 -0.2868,1.0429 0,0.5221 0.1258,0.9201 0.377,1.1962 0.2508,0.275 0.5629,0.413 0.936,0.413 0.3841,0 0.7018,-0.1692 0.9518,-0.5071 v 0.4359 h 0.7702 v -2.7921 c 0,-0.3668 -0.03,-0.6409 -0.091,-0.8229 -0.0601,-0.182 -0.1451,-0.324 -0.254,-0.428 -0.1099,-0.1029 -0.2559,-0.184 -0.4379,-0.2429 -0.1831,-0.0581 -0.4142,-0.0882 -0.6931,-0.0882 -0.5281,0 -0.902,0.091 -1.1219,0.271 -0.2211,0.1811 -0.3311,0.4102 -0.3311,0.6871 0,0.0281 8e-4,0.061 0.003,0.1001 z m 0.735,1.8249 c 0,-0.3299 0.0641,-0.572 0.1922,-0.7251 0.1279,-0.1528 0.2849,-0.2299 0.4728,-0.2299 0.201,0 0.3711,0.0791 0.5103,0.2362 0.1377,0.1567 0.2078,0.3897 0.2078,0.699 0,0.3217 -0.0669,0.561 -0.1999,0.7169 -0.1321,0.157 -0.3002,0.235 -0.5031,0.235 -0.1979,0 -0.36,-0.0771 -0.4879,-0.2299 -0.1281,-0.1542 -0.1922,-0.3872 -0.1922,-0.7022"
       style="fill:#231f20;fill-opacity:1;fill-rule:nonzero;stroke:none"
       transform="matrix(1.3333333,0,0,-1.3333333,0,1122.5197)" />
    <path
       id="path86"
       d="m 496.9559,188.4263 0.8209,-0.1372 c -0.1057,-0.3011 -0.2718,-0.5301 -0.4997,-0.6869 -0.2271,-0.1581 -0.5122,-0.2361 -0.8541,-0.2361 -0.5411,0 -0.9411,0.176 -1.201,0.5301 -0.205,0.2829 -0.3082,0.6409 -0.3082,1.0721 0,0.5159 0.1352,0.9198 0.4051,1.2118 0.269,0.2922 0.61,0.4382 1.0222,0.4382 0.4629,0 0.828,-0.1531 1.0958,-0.4592 0.2671,-0.3059 0.3952,-0.7739 0.3841,-1.4049 h -2.063 c 0.006,-0.244 0.072,-0.4339 0.199,-0.5692 0.127,-0.1357 0.286,-0.2038 0.4751,-0.2038 0.1289,0 0.2369,0.0349 0.3248,0.1049 0.0882,0.0712 0.1551,0.184 0.199,0.3402 z m 0.0471,0.8319 c -0.006,0.239 -0.0669,0.4198 -0.184,0.544 -0.1171,0.1239 -0.2599,0.186 -0.428,0.186 -0.18,0 -0.328,-0.0661 -0.4451,-0.1971 -0.117,-0.1301 -0.1749,-0.3081 -0.1729,-0.5329 z"
       style="fill:#231f20;fill-opacity:1;fill-rule:nonzero;stroke:none"
       transform="matrix(1.3333333,0,0,-1.3333333,0,1122.5197)" />
    <path
       id="path87"
       d="m 498.4157,187.2312 0.9403,-0.114 c 0.0159,-0.11 0.0519,-0.1851 0.108,-0.2262 0.078,-0.0589 0.2018,-0.0879 0.3688,-0.0879 0.2151,0 0.3761,0.0321 0.4841,0.097 0.072,0.0431 0.127,0.112 0.1639,0.2081 0.0252,0.068 0.038,0.1938 0.038,0.3778 v 0.4541 c -0.2458,-0.3359 -0.557,-0.504 -0.9321,-0.504 -0.4178,0 -0.7489,0.1769 -0.9929,0.5301 -0.1908,0.2801 -0.2869,0.627 -0.2869,1.0429 0,0.5221 0.1259,0.9201 0.377,1.1962 0.2509,0.275 0.563,0.413 0.936,0.413 0.3841,0 0.7019,-0.1692 0.9519,-0.5071 v 0.4359 h 0.7702 v -2.7921 c 0,-0.3668 -0.0301,-0.6409 -0.091,-0.8229 -0.0601,-0.182 -0.1452,-0.324 -0.254,-0.428 -0.11,-0.1029 -0.256,-0.184 -0.438,-0.2429 -0.1831,-0.0581 -0.4141,-0.0882 -0.693,-0.0882 -0.5281,0 -0.902,0.091 -1.122,0.271 -0.2211,0.1811 -0.3311,0.4102 -0.3311,0.6871 0,0.0281 9e-4,0.061 0.003,0.1001 z m 0.7351,1.8249 c 0,-0.3299 0.064,-0.572 0.1922,-0.7251 0.1278,-0.1528 0.2848,-0.2299 0.4728,-0.2299 0.201,0 0.371,0.0791 0.5102,0.2362 0.1378,0.1567 0.2078,0.3897 0.2078,0.699 0,0.3217 -0.0669,0.561 -0.1998,0.7169 -0.1321,0.157 -0.3002,0.235 -0.5032,0.235 -0.1979,0 -0.36,-0.0771 -0.4878,-0.2299 -0.1282,-0.1542 -0.1922,-0.3872 -0.1922,-0.7022"
       style="fill:#231f20;fill-opacity:1;fill-rule:nonzero;stroke:none"
       transform="matrix(1.3333333,0,0,-1.3333333,0,1122.5197)" />
    <path
       id="path88"
       d="m 503.958,188.4263 0.821,-0.1372 c -0.1058,-0.3011 -0.2719,-0.5301 -0.4998,-0.6869 -0.227,-0.1581 -0.5122,-0.2361 -0.8541,-0.2361 -0.5411,0 -0.9411,0.176 -1.201,0.5301 -0.205,0.2829 -0.3081,0.6409 -0.3081,1.0721 0,0.5159 0.1352,0.9198 0.405,1.2118 0.269,0.2922 0.6101,0.4382 1.0222,0.4382 0.4629,0 0.828,-0.1531 1.0959,-0.4592 0.267,-0.3059 0.3951,-0.7739 0.3841,-1.4049 h -2.0631 c 0.006,-0.244 0.072,-0.4339 0.199,-0.5692 0.127,-0.1357 0.286,-0.2038 0.4751,-0.2038 0.129,0 0.237,0.0349 0.3249,0.1049 0.0881,0.0712 0.155,0.184 0.1989,0.3402 z m 0.0471,0.8319 c -0.006,0.239 -0.0669,0.4198 -0.184,0.544 -0.117,0.1239 -0.2599,0.186 -0.428,0.186 -0.18,0 -0.328,-0.0661 -0.445,-0.1971 -0.1171,-0.1301 -0.1749,-0.3081 -0.173,-0.5329 z"
       style="fill:#231f20;fill-opacity:1;fill-rule:nonzero;stroke:none"
       transform="matrix(1.3333333,0,0,-1.3333333,0,1122.5197)" />
    <path
       id="path89"
       d="m 505.459,187.4361 v 4.2951 h 0.8229 v -1.5472 c 0.254,0.2892 0.5542,0.4343 0.9023,0.4343 0.3789,0 0.6919,-0.138 0.9408,-0.4122 0.248,-0.2741 0.3722,-0.6678 0.3722,-1.182 0,-0.5309 -0.127,-0.9408 -0.3802,-1.228 -0.2531,-0.2868 -0.5601,-0.43 -0.9209,-0.43 -0.1781,0 -0.353,0.0439 -0.5261,0.133 -0.173,0.089 -0.3221,0.2199 -0.4471,0.394 v -0.457 z m 0.8169,1.6231 c 0,-0.322 0.0511,-0.5601 0.152,-0.7151 0.1431,-0.2189 0.3322,-0.328 0.5692,-0.328 0.1808,0 0.3359,0.0779 0.464,0.233 0.1278,0.1551 0.1919,0.4 0.1919,0.7342 0,0.3549 -0.0649,0.612 -0.1939,0.7687 -0.1281,0.1571 -0.2931,0.2362 -0.4952,0.2362 -0.197,0 -0.3608,-0.0771 -0.4918,-0.2299 -0.131,-0.1542 -0.1962,-0.3861 -0.1962,-0.6991"
       style="fill:#231f20;fill-opacity:1;fill-rule:nonzero;stroke:none"
       transform="matrix(1.3333333,0,0,-1.3333333,0,1122.5197)" />
    <path
       id="path90"
       d="m 510.9602,188.4263 0.8209,-0.1372 c -0.1057,-0.3011 -0.2718,-0.5301 -0.4997,-0.6869 -0.2271,-0.1581 -0.5123,-0.2361 -0.8541,-0.2361 -0.5412,0 -0.9411,0.176 -1.2011,0.5301 -0.2049,0.2829 -0.3081,0.6409 -0.3081,1.0721 0,0.5159 0.1352,0.9198 0.4051,1.2118 0.269,0.2922 0.61,0.4382 1.0222,0.4382 0.4629,0 0.828,-0.1531 1.0958,-0.4592 0.2671,-0.3059 0.3952,-0.7739 0.3841,-1.4049 h -2.063 c 0.006,-0.244 0.072,-0.4339 0.199,-0.5692 0.127,-0.1357 0.286,-0.2038 0.475,-0.2038 0.129,0 0.237,0.0349 0.3249,0.1049 0.0882,0.0712 0.1551,0.184 0.199,0.3402 z m 0.047,0.8319 c -0.006,0.239 -0.0669,0.4198 -0.1839,0.544 -0.1171,0.1239 -0.26,0.186 -0.4281,0.186 -0.18,0 -0.3279,-0.0661 -0.445,-0.1971 -0.1171,-0.1301 -0.1749,-0.3081 -0.1729,-0.5329 z"
       style="fill:#231f20;fill-opacity:1;fill-rule:nonzero;stroke:none"
       transform="matrix(1.3333333,0,0,-1.3333333,0,1122.5197)" />
    <path
       id="path91"
       d="m 515.3261,187.4361 h -0.8229 v 1.588 c 0,0.3362 -0.0181,0.553 -0.053,0.652 -0.0351,0.098 -0.093,0.1751 -0.1721,0.2301 -0.079,0.0539 -0.174,0.082 -0.2848,0.082 -0.1432,0 -0.271,-0.0392 -0.3841,-0.1171 -0.1131,-0.0788 -0.1911,-0.182 -0.233,-0.311 -0.042,-0.129 -0.063,-0.3671 -0.063,-0.7149 v -1.4091 H 512.49 v 3.111 h 0.7643 v -0.4569 c 0.2718,0.3521 0.614,0.5281 1.0258,0.5281 0.1812,0 0.3481,-0.0332 0.4981,-0.0981 0.1499,-0.066 0.2639,-0.1491 0.341,-0.2511 0.0771,-0.1018 0.1309,-0.2169 0.161,-0.3459 0.0309,-0.1289 0.0459,-0.3129 0.0459,-0.553 z"
       style="fill:#231f20;fill-opacity:1;fill-rule:nonzero;stroke:none"
       transform="matrix(1.3333333,0,0,-1.3333333,0,1122.5197)" />
    <path
       id="path92"
       d="m 495.2004,230.1874 -0.7469,0.1349 c 0.0839,0.3011 0.2279,0.523 0.4328,0.6682 0.2061,0.144 0.5103,0.2171 0.9142,0.2171 0.3679,0 0.6409,-0.0442 0.8209,-0.1313 0.1792,-0.087 0.3062,-0.197 0.379,-0.3308 0.0731,-0.134 0.11,-0.3789 0.11,-0.737 l -0.009,-0.9612 c 0,-0.273 0.0128,-0.4748 0.04,-0.6049 0.0258,-0.129 0.0759,-0.269 0.1479,-0.417 h -0.8149 c -0.0213,0.055 -0.0482,0.1361 -0.0791,0.2429 -0.013,0.0491 -0.023,0.0811 -0.0289,0.097 -0.1412,-0.1369 -0.2911,-0.239 -0.451,-0.3079 -0.1602,-0.068 -0.3311,-0.102 -0.5131,-0.102 -0.32,0 -0.5731,0.087 -0.7571,0.2599 -0.1848,0.1741 -0.277,0.3941 -0.277,0.6602 0,0.1749 0.042,0.332 0.1259,0.47 0.0842,0.1381 0.2021,0.2429 0.3532,0.3161 0.1508,0.0728 0.3699,0.1369 0.6551,0.1919 0.3838,0.072 0.6508,0.14 0.7988,0.2021 v 0.0819 c 0,0.159 -0.0388,0.271 -0.1168,0.339 -0.0782,0.0669 -0.2251,0.1009 -0.4422,0.1009 -0.1468,0 -0.2611,-0.0289 -0.343,-0.087 -0.0819,-0.057 -0.148,-0.1579 -0.199,-0.303 z m 1.101,-0.6678 c -0.1049,-0.0352 -0.2719,-0.0771 -0.5009,-0.1262 -0.2282,-0.049 -0.377,-0.0969 -0.4482,-0.1428 -0.1068,-0.0772 -0.161,-0.1732 -0.161,-0.29 0,-0.1163 0.0431,-0.2152 0.129,-0.2991 0.0862,-0.0842 0.195,-0.1261 0.3283,-0.1261 0.1488,0 0.29,0.049 0.4249,0.146 0.1,0.0739 0.165,0.1649 0.1959,0.2729 0.0221,0.07 0.032,0.2041 0.032,0.4011 z"
       style="fill:#231f20;fill-opacity:1;fill-rule:nonzero;stroke:none"
       transform="matrix(1.3333333,0,0,-1.3333333,0,1122.5197)" />
    <path
       id="path93"
       d="m 497.8874,228.0254 v 4.2951 h 0.8229 v -1.5472 c 0.254,0.2892 0.5541,0.4343 0.9022,0.4343 0.379,0 0.692,-0.1381 0.9409,-0.4122 0.248,-0.2741 0.3721,-0.6678 0.3721,-1.182 0,-0.5309 -0.1269,-0.9408 -0.3801,-1.228 -0.2531,-0.2868 -0.5601,-0.43 -0.921,-0.43 -0.178,0 -0.3529,0.0439 -0.5261,0.1329 -0.1729,0.0891 -0.322,0.22 -0.447,0.3941 v -0.457 z m 0.8169,1.6231 c 0,-0.322 0.051,-0.5601 0.152,-0.7151 0.1431,-0.2189 0.3322,-0.328 0.5691,-0.328 0.1809,0 0.336,0.0779 0.4641,0.233 0.1278,0.155 0.1919,0.4 0.1919,0.7342 0,0.3549 -0.0649,0.612 -0.1939,0.7687 -0.1281,0.1571 -0.2931,0.2361 -0.4952,0.2361 -0.197,0 -0.3609,-0.0771 -0.4918,-0.2298 -0.131,-0.1542 -0.1962,-0.3861 -0.1962,-0.6991"
       style="fill:#231f20;fill-opacity:1;fill-rule:nonzero;stroke:none"
       transform="matrix(1.3333333,0,0,-1.3333333,0,1122.5197)" />
    <path
       id="path94"
       d="m 491.694,197.2877 h -5.4868 v 20.6866 c -2.0066,-1.8799 -4.3665,-3.2666 -7.0866,-4.1601 v 4.9802 c 1.4267,0.4666 2.9869,1.3533 4.6667,2.66 1.6801,1.3133 2.8335,2.8398 3.4534,4.5865 h 4.4533 z"
       style="fill:#231f20;fill-opacity:1;fill-rule:nonzero;stroke:none"
       transform="matrix(1.3333333,0,0,-1.3333333,0,1122.5197)" />
    <path
       id="path95"
       d="m 515.7156,218.9075 -5.3133,-0.5865 c -0.1267,1.0933 -0.4666,1.9001 -1.0134,2.4267 -0.5465,0.5199 -1.26,0.7799 -2.1333,0.7799 -1.1531,0 -2.1334,-0.5199 -2.9398,-1.5667 -0.8002,-1.0398 -1.3,-3.2066 -1.5134,-6.4999 1.3733,1.6132 3.0665,2.4199 5.1001,2.4199 2.2932,0 4.2531,-0.8733 5.8864,-2.62 1.6336,-1.7399 2.4534,-3.9932 2.4534,-6.7533 0,-2.9333 -0.8601,-5.2801 -2.5798,-7.0531 -1.7136,-1.7669 -3.9269,-2.6536 -6.6201,-2.6536 -2.8868,0 -5.2667,1.12 -7.1268,3.3668 -1.8599,2.2467 -2.7933,5.9266 -2.7933,11.0466 0,5.2466 0.9666,9.0266 2.9066,11.3468 1.9401,2.3198 4.4601,3.4798 7.56,3.4798 2.1734,0 3.9734,-0.6132 5.4,-1.8267 1.4267,-1.22 2.3335,-2.9865 2.7267,-5.3067 z m -12.4399,-11.9733 c 0,-1.7798 0.4065,-3.1597 1.2266,-4.1266 0.8201,-0.9732 1.76,-1.4599 2.8134,-1.4599 1.0199,0 1.8601,0.4 2.5401,1.1934 0.6798,0.7931 1.0131,2.0999 1.0131,3.9064 0,1.8601 -0.36,3.2267 -1.0933,4.0935 -0.7265,0.8666 -1.6399,1.3 -2.7332,1.3 -1.0533,0 -1.9468,-0.4133 -2.6733,-1.2401 -0.7334,-0.8266 -1.0934,-2.0532 -1.0934,-3.6667"
       style="fill:#231f20;fill-opacity:1;fill-rule:nonzero;stroke:none"
       transform="matrix(1.3333333,0,0,-1.3333333,0,1122.5197)" />
  </g>
</svg>
