<?xml version="1.0" encoding="UTF-8" standalone="no"?>
<!-- Created with Inkscape (http://www.inkscape.org/) -->

<svg
   version="1.1"
   id="svg1"
   width="1406.25"
   height="1406.25"
   viewBox="0 0 133.10504 133.10523"
   sodipodi:docname="USK_Sticker_09_EN.svg"
   inkscape:version="1.3.2 (091e20ef0f, 2023-11-25)"
   xmlns:inkscape="http://www.inkscape.org/namespaces/inkscape"
   xmlns:sodipodi="http://sodipodi.sourceforge.net/DTD/sodipodi-0.dtd"
   xmlns="http://www.w3.org/2000/svg"
   xmlns:svg="http://www.w3.org/2000/svg">
  <defs
     id="defs1" />
  <sodipodi:namedview
     id="namedview1"
     pagecolor="#ffffff"
     bordercolor="#000000"
     borderopacity="0.25"
     inkscape:showpageshadow="2"
     inkscape:pageopacity="0.0"
     inkscape:pagecheckerboard="0"
     inkscape:deskcolor="#d1d1d1"
     inkscape:zoom="2.2087815"
     inkscape:cx="299.71276"
     inkscape:cy="1008.4746"
     inkscape:window-width="1280"
     inkscape:window-height="717"
     inkscape:window-x="0"
     inkscape:window-y="0"
     inkscape:window-maximized="1"
     inkscape:current-layer="g1" />
  <g
     id="g1"
     inkscape:groupmode="layer"
     inkscape:label="1"
     transform="translate(-600.94751,-471.09352)">
    <path
       id="path25"
       d="m 460.0213,487.6946 h 81.2075 c 4.6398,0 8.4356,-4.1928 8.4356,-9.3178 v -79.4432 c 0,-5.1251 -3.7958,-9.3178 -8.4356,-9.3178 h -81.2075 c -4.6397,0 -8.4356,4.1927 -8.4356,9.3178 v 79.4432 c 0,5.125 3.7959,9.3178 8.4356,9.3178"
       style="fill:#bcab0b;fill-opacity:1;fill-rule:evenodd;stroke:none"
       transform="matrix(1.3333333,0,0,-1.3333333,0,1122.5197)" />
    <path
       id="path26"
       d="m 460.0213,487.6946 h 81.2075 c 4.6398,0 8.4356,-4.1928 8.4356,-9.3178 v -79.4432 c 0,-5.1251 -3.7958,-9.3178 -8.4356,-9.3178 h -81.2075 c -4.6397,0 -8.4356,4.1927 -8.4356,9.3178 v 79.4432 c 0,5.125 3.7959,9.3178 8.4356,9.3178 z"
       style="fill:none;stroke:#fee702;stroke-width:1.7501;stroke-linecap:butt;stroke-linejoin:miter;stroke-miterlimit:10;stroke-dasharray:none;stroke-opacity:1"
       transform="matrix(1.3333333,0,0,-1.3333333,0,1122.5197)" />
    <path
       id="path27"
       d="m 460.0213,487.6946 h 81.2075 c 4.6398,0 8.4356,-4.1928 8.4356,-9.3178 v -79.4432 c 0,-5.1251 -3.7958,-9.3178 -8.4356,-9.3178 h -81.2075 c -4.6397,0 -8.4356,4.1927 -8.4356,9.3178 v 79.4432 c 0,5.125 3.7959,9.3178 8.4356,9.3178 z"
       style="fill:none;stroke:#fee702;stroke-width:1.7501;stroke-linecap:butt;stroke-linejoin:miter;stroke-miterlimit:10;stroke-dasharray:none;stroke-opacity:1"
       transform="matrix(1.3333333,0,0,-1.3333333,0,1122.5197)" />
    <path
       id="path28"
       d="m 503.7446,479.5546 37.3153,-36.3654 c 2.1319,-2.0775 1.9987,-5.7042 -0.2962,-8.0589 l -35.5751,-36.5046 c -2.295,-2.355 -5.9168,-2.5818 -8.0487,-0.5043 l -37.3153,36.3654 c -2.1319,2.0775 -1.9987,5.7042 0.2962,8.0589 l 35.5751,36.5046 c 2.2949,2.355 5.9168,2.5818 8.0487,0.5043"
       style="fill:#fee702;fill-opacity:1;fill-rule:evenodd;stroke:none"
       transform="matrix(1.3333333,0,0,-1.3333333,0,1122.5197)" />
    <path
       id="path29"
       d="m 503.7446,479.5546 37.3153,-36.3654 c 2.1319,-2.0775 1.9987,-5.7042 -0.2962,-8.0589 l -35.5751,-36.5046 c -2.295,-2.355 -5.9168,-2.5818 -8.0487,-0.5043 l -37.3153,36.3654 c -2.1319,2.0775 -1.9987,5.7042 0.2962,8.0589 l 35.5751,36.5046 c 2.2949,2.355 5.9168,2.5818 8.0487,0.5043 z"
       style="fill:none;stroke:#231f20;stroke-width:1.0001;stroke-linecap:butt;stroke-linejoin:miter;stroke-miterlimit:10;stroke-dasharray:none;stroke-opacity:1"
       transform="matrix(1.3333333,0,0,-1.3333333,0,1122.5197)" />
    <path
       id="path30"
       d="m 503.7446,479.5546 37.3153,-36.3654 c 2.1319,-2.0775 1.9987,-5.7042 -0.2962,-8.0589 l -35.5751,-36.5046 c -2.295,-2.355 -5.9168,-2.5818 -8.0487,-0.5043 l -37.3153,36.3654 c -2.1319,2.0775 -1.9987,5.7042 0.2962,8.0589 l 35.5751,36.5046 c 2.2949,2.355 5.9168,2.5818 8.0487,0.5043 z"
       style="fill:none;stroke:#231f20;stroke-width:1.0001;stroke-linecap:butt;stroke-linejoin:miter;stroke-miterlimit:10;stroke-dasharray:none;stroke-opacity:1"
       transform="matrix(1.3333333,0,0,-1.3333333,0,1122.5197)" />
    <path
       id="path31"
       d="m 489.0002,468.6358 h 1.5894 v -4.2644 c 0,-0.6767 0.0201,-1.1166 0.0587,-1.3164 0.0677,-0.3226 0.231,-0.5811 0.4858,-0.7756 0.2565,-0.1962 0.6069,-0.2934 1.0505,-0.2934 0.451,0 0.792,0.0919 1.0211,0.277 0.2293,0.1834 0.3668,0.4107 0.4127,0.6783 0.0476,0.2696 0.0694,0.7149 0.0694,1.3382 v 4.3563 h 1.5897 v -4.136 c 0,-0.9462 -0.0422,-1.6135 -0.1284,-2.0041 -0.0862,-0.3903 -0.2438,-0.7186 -0.4748,-0.9882 -0.231,-0.2676 -0.5409,-0.4821 -0.9258,-0.6415 -0.3869,-0.1595 -0.8929,-0.2383 -1.5162,-0.2383 -0.7518,0 -1.3218,0.0861 -1.7105,0.2602 -0.3886,0.1743 -0.695,0.3997 -0.9204,0.6766 -0.2256,0.2767 -0.3739,0.5684 -0.4456,0.8725 -0.1043,0.451 -0.1556,1.1166 -0.1556,1.9984 z"
       style="fill:#231f20;fill-opacity:1;fill-rule:nonzero;stroke:none"
       transform="matrix(1.3333333,0,0,-1.3333333,0,1122.5197)" />
    <path
       id="path32"
       d="m 496.5514,463.3226 1.5474,0.1522 c 0.0919,-0.5208 0.2807,-0.902 0.5667,-1.1458 0.284,-0.2421 0.6673,-0.3648 1.1511,-0.3648 0.5117,0 0.8986,0.108 1.1568,0.3263 0.2606,0.2162 0.3907,0.4694 0.3907,0.7591 0,0.1868 -0.055,0.3447 -0.165,0.4748 -0.1083,0.1318 -0.2988,0.2455 -0.572,0.341 -0.1851,0.066 -0.6106,0.1797 -1.2722,0.3447 -0.8527,0.2106 -1.4502,0.4711 -1.7932,0.7789 -0.4839,0.4329 -0.726,0.9607 -0.726,1.5843 0,0.4014 0.1137,0.7753 0.341,1.1257 0.2274,0.3483 0.5556,0.6139 0.9828,0.7973 0.4289,0.1815 0.9439,0.2733 1.5491,0.2733 0.9899,0 1.7326,-0.2163 2.2329,-0.6491 0.4989,-0.4346 0.7611,-1.012 0.7866,-1.7362 l -1.5894,-0.0695 c -0.068,0.4051 -0.2146,0.6965 -0.4382,0.8725 -0.2237,0.178 -0.5593,0.2659 -1.0066,0.2659 -0.4621,0 -0.8249,-0.0935 -1.0854,-0.2843 -0.1687,-0.1208 -0.2528,-0.284 -0.2528,-0.4876 0,-0.1871 0.0788,-0.3464 0.2364,-0.4785 0.1998,-0.1686 0.6874,-0.3447 1.4612,-0.5261 0.7736,-0.1834 1.3456,-0.3722 1.7158,-0.5666 0.3705,-0.1962 0.6602,-0.4621 0.8711,-0.8011 0.2089,-0.3393 0.3135,-0.7571 0.3135,-1.254 0,-0.451 -0.1247,-0.8745 -0.3758,-1.2668 -0.2512,-0.3943 -0.6052,-0.6874 -1.0636,-0.8782 -0.4581,-0.1925 -1.0301,-0.288 -1.7141,-0.288 -0.9955,0 -1.76,0.2293 -2.2935,0.6894 -0.5335,0.4603 -0.8524,1.1313 -0.9553,2.0112"
       style="fill:#231f20;fill-opacity:1;fill-rule:nonzero;stroke:none"
       transform="matrix(1.3333333,0,0,-1.3333333,0,1122.5197)" />
    <path
       id="path33"
       d="m 504.3124,460.7614 v 7.8744 h 1.5894 v -3.4962 l 3.2119,3.4962 h 2.1379 l -2.9648,-3.0674 3.1261,-4.807 h -2.0571 l -2.1634,3.6961 -1.2906,-1.3164 v -2.3797 z"
       style="fill:#231f20;fill-opacity:1;fill-rule:nonzero;stroke:none"
       transform="matrix(1.3333333,0,0,-1.3333333,0,1122.5197)" />
    <path
       id="path34"
       d="m 483.7501,416.5795 h 0.457 v 0.235 c 0,0.2611 0.028,0.457 0.0842,0.5859 0.0558,0.1293 0.1579,0.2342 0.307,0.3153 0.1499,0.0807 0.3387,0.121 0.5669,0.121 0.235,0 0.464,-0.0352 0.6891,-0.1052 l -0.1111,-0.5748 c -0.131,0.032 -0.2571,0.0467 -0.3782,0.0467 -0.1199,0 -0.2049,-0.0269 -0.2568,-0.0827 -0.0521,-0.0562 -0.0771,-0.163 -0.0771,-0.3212 v -0.22 h 0.6151 v -0.6468 h -0.6151 v -2.4642 h -0.824 v 2.4642 h -0.457 z"
       style="fill:#231f20;fill-opacity:1;fill-rule:nonzero;stroke:none"
       transform="matrix(1.3333333,0,0,-1.3333333,0,1122.5197)" />
    <path
       id="path35"
       d="m 486.8972,413.4685 h -0.8229 v 3.111 h 0.7639 v -0.4419 c 0.131,0.2089 0.2492,0.347 0.3532,0.413 0.1049,0.0661 0.2228,0.1001 0.356,0.1001 0.188,0 0.368,-0.0522 0.542,-0.1562 l -0.2551,-0.7169 c -0.138,0.089 -0.267,0.1338 -0.3861,0.1338 -0.1159,0 -0.2129,-0.0309 -0.2928,-0.095 -0.0811,-0.0629 -0.1431,-0.178 -0.1891,-0.3438 -0.0459,-0.1661 -0.0691,-0.5142 -0.0691,-1.0432 z"
       style="fill:#231f20;fill-opacity:1;fill-rule:nonzero;stroke:none"
       transform="matrix(1.3333333,0,0,-1.3333333,0,1122.5197)" />
    <path
       id="path36"
       d="m 490.2452,414.4586 0.8209,-0.1372 c -0.1058,-0.301 -0.2719,-0.53 -0.4998,-0.6868 -0.227,-0.1582 -0.5122,-0.2361 -0.854,-0.2361 -0.5412,0 -0.9412,0.176 -1.2011,0.5301 -0.2049,0.2829 -0.3081,0.6409 -0.3081,1.072 0,0.5159 0.1352,0.9199 0.4051,1.2118 0.269,0.2923 0.61,0.4383 1.0221,0.4383 0.4629,0 0.828,-0.1531 1.0959,-0.4592 0.267,-0.3059 0.3952,-0.7739 0.3841,-1.4049 h -2.0631 c 0.006,-0.244 0.072,-0.434 0.199,-0.5692 0.127,-0.1358 0.2861,-0.2038 0.4751,-0.2038 0.129,0 0.237,0.0349 0.3249,0.1049 0.0881,0.0711 0.155,0.184 0.199,0.3401 z m 0.047,0.832 c -0.006,0.239 -0.0669,0.4198 -0.1839,0.544 -0.1171,0.1239 -0.26,0.1859 -0.4281,0.1859 -0.18,0 -0.3279,-0.066 -0.445,-0.197 -0.1171,-0.1301 -0.1749,-0.3081 -0.1729,-0.5329 z"
       style="fill:#231f20;fill-opacity:1;fill-rule:nonzero;stroke:none"
       transform="matrix(1.3333333,0,0,-1.3333333,0,1122.5197)" />
    <path
       id="path37"
       d="m 491.781,417.0016 v 0.762 h 0.8232 v -0.762 z m 0,-3.5331 v 3.111 h 0.8232 v -3.111 z"
       style="fill:#231f20;fill-opacity:1;fill-rule:nonzero;stroke:none"
       transform="matrix(1.3333333,0,0,-1.3333333,0,1122.5197)" />
    <path
       id="path38"
       d="m 493.3721,413.2636 0.9402,-0.114 c 0.0159,-0.11 0.0519,-0.1851 0.108,-0.2262 0.078,-0.059 0.2018,-0.0879 0.3688,-0.0879 0.2152,0 0.3762,0.0321 0.4842,0.097 0.072,0.0431 0.127,0.1119 0.1638,0.208 0.0252,0.0681 0.038,0.1939 0.038,0.3779 v 0.4541 c -0.2458,-0.3359 -0.557,-0.504 -0.932,-0.504 -0.4179,0 -0.749,0.1769 -0.993,0.5301 -0.1908,0.28 -0.2869,0.627 -0.2869,1.0428 0,0.5222 0.1259,0.9202 0.377,1.1963 0.2509,0.2749 0.563,0.413 0.936,0.413 0.3841,0 0.7019,-0.1693 0.9519,-0.5071 v 0.4359 h 0.7702 v -2.7921 c 0,-0.3668 -0.0301,-0.6409 -0.091,-0.8229 -0.0601,-0.182 -0.1452,-0.324 -0.254,-0.428 -0.11,-0.1029 -0.256,-0.184 -0.438,-0.243 -0.1831,-0.0581 -0.4141,-0.0881 -0.693,-0.0881 -0.5281,0 -0.902,0.091 -1.122,0.271 -0.2211,0.1811 -0.3311,0.4102 -0.3311,0.6871 0,0.0281 9e-4,0.0609 0.003,0.1001 z m 0.735,1.8249 c 0,-0.3299 0.064,-0.572 0.1922,-0.7251 0.1278,-0.1528 0.2849,-0.2299 0.4728,-0.2299 0.201,0 0.371,0.0791 0.5102,0.2361 0.1378,0.1568 0.2078,0.3898 0.2078,0.6991 0,0.3217 -0.0669,0.5609 -0.1998,0.7168 -0.1321,0.1571 -0.3002,0.235 -0.5032,0.235 -0.1978,0 -0.36,-0.0771 -0.4878,-0.2299 -0.1282,-0.1542 -0.1922,-0.3872 -0.1922,-0.7021"
       style="fill:#231f20;fill-opacity:1;fill-rule:nonzero;stroke:none"
       transform="matrix(1.3333333,0,0,-1.3333333,0,1122.5197)" />
    <path
       id="path39"
       d="m 498.9144,414.4586 0.8209,-0.1372 c -0.1058,-0.301 -0.2719,-0.53 -0.4998,-0.6868 -0.227,-0.1582 -0.5122,-0.2361 -0.8541,-0.2361 -0.5411,0 -0.9411,0.176 -1.201,0.5301 -0.2049,0.2829 -0.3081,0.6409 -0.3081,1.072 0,0.5159 0.1352,0.9199 0.4051,1.2118 0.269,0.2923 0.61,0.4383 1.0221,0.4383 0.4629,0 0.828,-0.1531 1.0959,-0.4592 0.267,-0.3059 0.3952,-0.7739 0.3841,-1.4049 h -2.0631 c 0.006,-0.244 0.072,-0.434 0.199,-0.5692 0.127,-0.1358 0.286,-0.2038 0.4751,-0.2038 0.129,0 0.237,0.0349 0.3249,0.1049 0.0881,0.0711 0.155,0.184 0.199,0.3401 z m 0.047,0.832 c -0.006,0.239 -0.0669,0.4198 -0.184,0.544 -0.117,0.1239 -0.2599,0.1859 -0.428,0.1859 -0.18,0 -0.328,-0.066 -0.445,-0.197 -0.1171,-0.1301 -0.1749,-0.3081 -0.1729,-0.5329 z"
       style="fill:#231f20;fill-opacity:1;fill-rule:nonzero;stroke:none"
       transform="matrix(1.3333333,0,0,-1.3333333,0,1122.5197)" />
    <path
       id="path40"
       d="m 500.3742,413.2636 0.9403,-0.114 c 0.0158,-0.11 0.0518,-0.1851 0.108,-0.2262 0.0779,-0.059 0.2018,-0.0879 0.3687,-0.0879 0.2152,0 0.3762,0.0321 0.4842,0.097 0.072,0.0431 0.127,0.1119 0.1638,0.208 0.0253,0.0681 0.038,0.1939 0.038,0.3779 v 0.4541 c -0.2457,-0.3359 -0.557,-0.504 -0.932,-0.504 -0.4178,0 -0.7489,0.1769 -0.993,0.5301 -0.1908,0.28 -0.2868,0.627 -0.2868,1.0428 0,0.5222 0.1258,0.9202 0.377,1.1963 0.2508,0.2749 0.5629,0.413 0.936,0.413 0.3841,0 0.7018,-0.1693 0.9518,-0.5071 v 0.4359 h 0.7702 v -2.7921 c 0,-0.3668 -0.03,-0.6409 -0.091,-0.8229 -0.0601,-0.182 -0.1451,-0.324 -0.254,-0.428 -0.11,-0.1029 -0.2559,-0.184 -0.4379,-0.243 -0.1831,-0.0581 -0.4142,-0.0881 -0.6931,-0.0881 -0.5281,0 -0.902,0.091 -1.1219,0.271 -0.2211,0.1811 -0.3311,0.4102 -0.3311,0.6871 0,0.0281 8e-4,0.0609 0.003,0.1001 z m 0.735,1.8249 c 0,-0.3299 0.0641,-0.572 0.1922,-0.7251 0.1279,-0.1528 0.2849,-0.2299 0.4728,-0.2299 0.201,0 0.3711,0.0791 0.5103,0.2361 0.1377,0.1568 0.2078,0.3898 0.2078,0.6991 0,0.3217 -0.0669,0.5609 -0.1999,0.7168 -0.1321,0.1571 -0.3002,0.235 -0.5031,0.235 -0.1979,0 -0.36,-0.0771 -0.4879,-0.2299 -0.1281,-0.1542 -0.1922,-0.3872 -0.1922,-0.7021"
       style="fill:#231f20;fill-opacity:1;fill-rule:nonzero;stroke:none"
       transform="matrix(1.3333333,0,0,-1.3333333,0,1122.5197)" />
    <path
       id="path41"
       d="m 505.9165,414.4586 0.8209,-0.1372 c -0.1057,-0.301 -0.2718,-0.53 -0.4997,-0.6868 -0.2271,-0.1582 -0.5123,-0.2361 -0.8541,-0.2361 -0.5411,0 -0.9411,0.176 -1.201,0.5301 -0.205,0.2829 -0.3082,0.6409 -0.3082,1.072 0,0.5159 0.1352,0.9199 0.4051,1.2118 0.269,0.2923 0.61,0.4383 1.0222,0.4383 0.4629,0 0.828,-0.1531 1.0958,-0.4592 0.2671,-0.3059 0.3952,-0.7739 0.3841,-1.4049 h -2.063 c 0.006,-0.244 0.072,-0.434 0.199,-0.5692 0.127,-0.1358 0.286,-0.2038 0.4751,-0.2038 0.1289,0 0.2369,0.0349 0.3248,0.1049 0.0882,0.0711 0.1551,0.184 0.199,0.3401 z m 0.0471,0.832 c -0.006,0.239 -0.0669,0.4198 -0.184,0.544 -0.1171,0.1239 -0.2599,0.1859 -0.428,0.1859 -0.18,0 -0.328,-0.066 -0.4451,-0.197 -0.1171,-0.1301 -0.1749,-0.3081 -0.1729,-0.5329 z"
       style="fill:#231f20;fill-opacity:1;fill-rule:nonzero;stroke:none"
       transform="matrix(1.3333333,0,0,-1.3333333,0,1122.5197)" />
    <path
       id="path42"
       d="m 507.4174,413.4685 v 4.2951 h 0.8229 v -1.5472 c 0.254,0.2891 0.5542,0.4343 0.9023,0.4343 0.379,0 0.692,-0.1381 0.9408,-0.4122 0.2481,-0.2741 0.3722,-0.6678 0.3722,-1.182 0,-0.531 -0.127,-0.9408 -0.3801,-1.228 -0.2531,-0.2869 -0.5601,-0.43 -0.921,-0.43 -0.178,0 -0.3529,0.0439 -0.5261,0.1329 -0.1729,0.089 -0.322,0.22 -0.447,0.394 v -0.4569 z m 0.817,1.6231 c 0,-0.322 0.051,-0.5601 0.1519,-0.7152 0.1432,-0.2188 0.3323,-0.3279 0.5692,-0.3279 0.1809,0 0.3359,0.0779 0.4641,0.233 0.1278,0.155 0.1919,0.3999 0.1919,0.7342 0,0.3549 -0.0649,0.612 -0.1939,0.7687 -0.1282,0.157 -0.2931,0.2361 -0.4952,0.2361 -0.197,0 -0.3609,-0.0771 -0.4918,-0.2299 -0.131,-0.1542 -0.1962,-0.386 -0.1962,-0.699"
       style="fill:#231f20;fill-opacity:1;fill-rule:nonzero;stroke:none"
       transform="matrix(1.3333333,0,0,-1.3333333,0,1122.5197)" />
    <path
       id="path43"
       d="m 512.9186,414.4586 0.821,-0.1372 c -0.1058,-0.301 -0.2719,-0.53 -0.4998,-0.6868 -0.227,-0.1582 -0.5122,-0.2361 -0.8541,-0.2361 -0.5411,0 -0.9411,0.176 -1.201,0.5301 -0.205,0.2829 -0.3081,0.6409 -0.3081,1.072 0,0.5159 0.1352,0.9199 0.405,1.2118 0.269,0.2923 0.6101,0.4383 1.0222,0.4383 0.4629,0 0.828,-0.1531 1.0959,-0.4592 0.267,-0.3059 0.3951,-0.7739 0.3841,-1.4049 h -2.0631 c 0.006,-0.244 0.072,-0.434 0.199,-0.5692 0.127,-0.1358 0.286,-0.2038 0.4751,-0.2038 0.129,0 0.237,0.0349 0.3249,0.1049 0.0881,0.0711 0.155,0.184 0.1989,0.3401 z m 0.0471,0.832 c -0.006,0.239 -0.0669,0.4198 -0.184,0.544 -0.117,0.1239 -0.2599,0.1859 -0.428,0.1859 -0.18,0 -0.328,-0.066 -0.445,-0.197 -0.1171,-0.1301 -0.1749,-0.3081 -0.173,-0.5329 z"
       style="fill:#231f20;fill-opacity:1;fill-rule:nonzero;stroke:none"
       transform="matrix(1.3333333,0,0,-1.3333333,0,1122.5197)" />
    <path
       id="path44"
       d="m 517.2846,413.4685 h -0.8229 v 1.588 c 0,0.3362 -0.0182,0.553 -0.053,0.6519 -0.0352,0.0981 -0.093,0.1752 -0.1721,0.2302 -0.0791,0.0539 -0.174,0.0819 -0.2849,0.0819 -0.1431,0 -0.271,-0.0391 -0.3841,-0.117 -0.1131,-0.0788 -0.191,-0.182 -0.233,-0.311 -0.0419,-0.129 -0.0629,-0.3671 -0.0629,-0.7149 v -1.4091 h -0.8232 v 3.111 h 0.7642 v -0.4569 c 0.2719,0.352 0.614,0.5281 1.0259,0.5281 0.1811,0 0.3481,-0.0332 0.498,-0.0981 0.15,-0.066 0.2639,-0.1491 0.341,-0.2512 0.0771,-0.1017 0.131,-0.2168 0.161,-0.3458 0.0309,-0.129 0.046,-0.3129 0.046,-0.553 z"
       style="fill:#231f20;fill-opacity:1;fill-rule:nonzero;stroke:none"
       transform="matrix(1.3333333,0,0,-1.3333333,0,1122.5197)" />
    <path
       id="path45"
       d="m 497.1589,456.2198 -0.747,0.1349 c 0.0839,0.301 0.2279,0.523 0.4329,0.6681 0.2061,0.144 0.5102,0.2172 0.9142,0.2172 0.3679,0 0.6409,-0.0443 0.8209,-0.1313 0.1791,-0.087 0.3061,-0.197 0.379,-0.3308 0.0731,-0.1341 0.11,-0.379 0.11,-0.737 l -0.009,-0.9612 c 0,-0.273 0.0127,-0.4748 0.0399,-0.6049 0.0258,-0.129 0.076,-0.269 0.148,-0.417 h -0.815 c -0.0212,0.055 -0.0481,0.1361 -0.079,0.2429 -0.0131,0.0491 -0.023,0.0811 -0.029,0.097 -0.1411,-0.1369 -0.2911,-0.239 -0.451,-0.3079 -0.1601,-0.068 -0.331,-0.102 -0.513,-0.102 -0.3201,0 -0.5732,0.087 -0.7572,0.2599 -0.1848,0.1741 -0.2769,0.394 -0.2769,0.6602 0,0.1749 0.042,0.3319 0.1259,0.47 0.0841,0.138 0.2021,0.2429 0.3532,0.3161 0.1508,0.0728 0.3699,0.1369 0.655,0.1919 0.3839,0.072 0.6509,0.14 0.7988,0.2021 v 0.0819 c 0,0.159 -0.0388,0.271 -0.1167,0.339 -0.0783,0.0669 -0.2251,0.1009 -0.4422,0.1009 -0.1469,0 -0.2611,-0.0289 -0.343,-0.087 -0.082,-0.057 -0.148,-0.1579 -0.199,-0.303 z m 1.1009,-0.6679 c -0.1048,-0.0351 -0.2718,-0.0771 -0.5008,-0.1261 -0.2282,-0.049 -0.377,-0.0969 -0.4482,-0.1429 -0.1069,-0.0771 -0.161,-0.1732 -0.161,-0.29 0,-0.1162 0.0431,-0.2151 0.129,-0.299 0.0861,-0.0842 0.195,-0.1262 0.3282,-0.1262 0.1488,0 0.29,0.0491 0.4249,0.146 0.1001,0.074 0.165,0.165 0.1959,0.273 0.0221,0.07 0.032,0.2041 0.032,0.4011 z"
       style="fill:#231f20;fill-opacity:1;fill-rule:nonzero;stroke:none"
       transform="matrix(1.3333333,0,0,-1.3333333,0,1122.5197)" />
    <path
       id="path46"
       d="m 499.8458,454.0578 v 4.2951 h 0.8229 v -1.5472 c 0.254,0.2891 0.5542,0.4343 0.9023,0.4343 0.379,0 0.6919,-0.1381 0.9408,-0.4122 0.248,-0.2741 0.3722,-0.6678 0.3722,-1.182 0,-0.531 -0.127,-0.9409 -0.3801,-1.228 -0.2532,-0.2869 -0.5602,-0.43 -0.921,-0.43 -0.178,0 -0.3529,0.0439 -0.5261,0.1329 -0.1729,0.089 -0.322,0.22 -0.447,0.394 v -0.4569 z m 0.817,1.6231 c 0,-0.322 0.051,-0.5601 0.1519,-0.7152 0.1432,-0.2188 0.3322,-0.3279 0.5692,-0.3279 0.1809,0 0.3359,0.0779 0.464,0.233 0.1279,0.155 0.1919,0.3999 0.1919,0.7341 0,0.3549 -0.0649,0.612 -0.1938,0.7688 -0.1282,0.157 -0.2931,0.2361 -0.4953,0.2361 -0.197,0 -0.3608,-0.0771 -0.4918,-0.2299 -0.1309,-0.1542 -0.1961,-0.386 -0.1961,-0.699"
       style="fill:#231f20;fill-opacity:1;fill-rule:nonzero;stroke:none"
       transform="matrix(1.3333333,0,0,-1.3333333,0,1122.5197)" />
    <path
       id="path47"
       d="m 508.801,443.8429 -5.3132,-0.5865 c -0.1267,1.0933 -0.4666,1.9 -1.0134,2.4267 -0.5465,0.5199 -1.26,0.7798 -2.1334,0.7798 -1.1531,0 -2.1333,-0.5198 -2.9398,-1.5667 -0.8002,-1.0397 -1.2999,-3.2065 -1.5134,-6.4998 1.3734,1.6132 3.0665,2.4199 5.1001,2.4199 2.2932,0 4.2531,-0.8733 5.8864,-2.62 1.6336,-1.74 2.4534,-3.9932 2.4534,-6.7533 0,-2.9333 -0.86,-5.2801 -2.5798,-7.0532 -1.7135,-1.7668 -3.9268,-2.6535 -6.62,-2.6535 -2.8868,0 -5.2668,1.12 -7.1269,3.3667 -1.8598,2.2468 -2.7933,5.9267 -2.7933,11.0466 0,5.2467 0.9667,9.0267 2.9067,11.3468 1.94,2.3199 4.46,3.4799 7.56,3.4799 2.1733,0 3.9733,-0.6132 5.4,-1.8267 1.4267,-1.22 2.3335,-2.9866 2.7266,-5.3067 z m -12.4398,-11.9733 c 0,-1.7799 0.4065,-3.1598 1.2265,-4.1267 0.8201,-0.9731 1.7601,-1.4598 2.8134,-1.4598 1.0199,0 1.8601,0.4 2.5402,1.1934 0.6797,0.7931 1.0131,2.0999 1.0131,3.9064 0,1.8601 -0.36,3.2267 -1.0934,4.0935 -0.7265,0.8666 -1.6398,1.3 -2.7331,1.3 -1.0534,0 -1.9469,-0.4133 -2.6734,-1.2402 -0.7333,-0.8266 -1.0933,-2.0531 -1.0933,-3.6666"
       style="fill:#231f20;fill-opacity:1;fill-rule:nonzero;stroke:none"
       transform="matrix(1.3333333,0,0,-1.3333333,0,1122.5197)" />
  </g>
</svg>
