<?xml version="1.0" encoding="UTF-8" standalone="no"?>
<!-- Created with Inkscape (http://www.inkscape.org/) -->

<svg
   version="1.1"
   id="svg1"
   width="1406.25"
   height="1406.25"
   viewBox="0 0 133.1051 133.10506"
   sodipodi:docname="USK_Sticker_09_EN.svg"
   inkscape:version="1.3.2 (091e20ef0f, 2023-11-25)"
   xmlns:inkscape="http://www.inkscape.org/namespaces/inkscape"
   xmlns:sodipodi="http://sodipodi.sourceforge.net/DTD/sodipodi-0.dtd"
   xmlns="http://www.w3.org/2000/svg"
   xmlns:svg="http://www.w3.org/2000/svg">
  <defs
     id="defs1" />
  <sodipodi:namedview
     id="namedview1"
     pagecolor="#ffffff"
     bordercolor="#000000"
     borderopacity="0.25"
     inkscape:showpageshadow="2"
     inkscape:pageopacity="0.0"
     inkscape:pagecheckerboard="0"
     inkscape:deskcolor="#d1d1d1"
     inkscape:zoom="2.2087815"
     inkscape:cx="299.71276"
     inkscape:cy="1008.4746"
     inkscape:window-width="1280"
     inkscape:window-height="717"
     inkscape:window-x="0"
     inkscape:window-y="0"
     inkscape:window-maximized="1"
     inkscape:current-layer="g1" />
  <g
     id="g1"
     inkscape:groupmode="layer"
     inkscape:label="1"
     transform="translate(-597.81695,-618.70682)">
    <path
       id="path48"
       d="m 457.6734,376.9846 h 81.2075 c 4.6397,0 8.4356,-4.1927 8.4356,-9.3177 v -79.4432 c 0,-5.1251 -3.7959,-9.3178 -8.4356,-9.3178 h -81.2075 c -4.6398,0 -8.4356,4.1927 -8.4356,9.3178 v 79.4432 c 0,5.125 3.7958,9.3177 8.4356,9.3177"
       style="fill:#2d8836;fill-opacity:1;fill-rule:evenodd;stroke:none"
       transform="matrix(1.3333333,0,0,-1.3333333,0,1122.5197)" />
    <path
       id="path49"
       d="m 457.6734,376.9846 h 81.2075 c 4.6397,0 8.4356,-4.1927 8.4356,-9.3177 v -79.4432 c 0,-5.1251 -3.7959,-9.3178 -8.4356,-9.3178 h -81.2075 c -4.6398,0 -8.4356,4.1927 -8.4356,9.3178 v 79.4432 c 0,5.125 3.7958,9.3177 8.4356,9.3177 z"
       style="fill:none;stroke:#33b540;stroke-width:1.7501;stroke-linecap:butt;stroke-linejoin:miter;stroke-miterlimit:10;stroke-dasharray:none;stroke-opacity:1"
       transform="matrix(1.3333333,0,0,-1.3333333,0,1122.5197)" />
    <path
       id="path50"
       d="m 457.6734,376.9846 h 81.2075 c 4.6397,0 8.4356,-4.1927 8.4356,-9.3177 v -79.4432 c 0,-5.1251 -3.7959,-9.3178 -8.4356,-9.3178 h -81.2075 c -4.6398,0 -8.4356,4.1927 -8.4356,9.3178 v 79.4432 c 0,5.125 3.7958,9.3177 8.4356,9.3177 z"
       style="fill:none;stroke:#33b540;stroke-width:1.7501;stroke-linecap:butt;stroke-linejoin:miter;stroke-miterlimit:10;stroke-dasharray:none;stroke-opacity:1"
       transform="matrix(1.3333333,0,0,-1.3333333,0,1122.5197)" />
    <path
       id="path51"
       d="m 501.3967,368.8447 37.3152,-36.3654 c 2.132,-2.0775 1.9987,-5.7042 -0.2962,-8.0589 l -35.5751,-36.5046 c -2.2949,-2.355 -5.9167,-2.5818 -8.0487,-0.5043 l -37.3152,36.3654 c -2.132,2.0775 -1.9987,5.7042 0.2962,8.0589 l 35.5751,36.5046 c 2.2949,2.355 5.9167,2.5818 8.0487,0.5043"
       style="fill:#33b540;fill-opacity:1;fill-rule:evenodd;stroke:none"
       transform="matrix(1.3333333,0,0,-1.3333333,0,1122.5197)" />
    <path
       id="path52"
       d="m 501.3967,368.8447 37.3152,-36.3654 c 2.132,-2.0775 1.9987,-5.7042 -0.2962,-8.0589 l -35.5751,-36.5046 c -2.2949,-2.355 -5.9167,-2.5818 -8.0487,-0.5043 l -37.3152,36.3654 c -2.132,2.0775 -1.9987,5.7042 0.2962,8.0589 l 35.5751,36.5046 c 2.2949,2.355 5.9167,2.5818 8.0487,0.5043 z"
       style="fill:none;stroke:#231f20;stroke-width:1.0001;stroke-linecap:butt;stroke-linejoin:miter;stroke-miterlimit:10;stroke-dasharray:none;stroke-opacity:1"
       transform="matrix(1.3333333,0,0,-1.3333333,0,1122.5197)" />
    <path
       id="path53"
       d="m 501.3967,368.8447 37.3152,-36.3654 c 2.132,-2.0775 1.9987,-5.7042 -0.2962,-8.0589 l -35.5751,-36.5046 c -2.2949,-2.355 -5.9167,-2.5818 -8.0487,-0.5043 l -37.3152,36.3654 c -2.132,2.0775 -1.9987,5.7042 0.2962,8.0589 l 35.5751,36.5046 c 2.2949,2.355 5.9167,2.5818 8.0487,0.5043 z"
       style="fill:none;stroke:#231f20;stroke-width:1.0001;stroke-linecap:butt;stroke-linejoin:miter;stroke-miterlimit:10;stroke-dasharray:none;stroke-opacity:1"
       transform="matrix(1.3333333,0,0,-1.3333333,0,1122.5197)" />
    <path
       id="path54"
       d="m 486.6523,357.9259 h 1.5893 v -4.2645 c 0,-0.6766 0.0202,-1.1165 0.0587,-1.3164 0.0678,-0.3225 0.231,-0.5811 0.4859,-0.7755 0.2565,-0.1962 0.6069,-0.2934 1.0505,-0.2934 0.451,0 0.792,0.0918 1.021,0.2769 0.2294,0.1834 0.3668,0.4108 0.4128,0.6784 0.0476,0.2695 0.0694,0.7149 0.0694,1.3382 v 4.3563 h 1.5897 v -4.136 c 0,-0.9462 -0.0423,-1.6135 -0.1284,-2.0041 -0.0862,-0.3904 -0.2438,-0.7186 -0.4748,-0.9882 -0.2311,-0.2676 -0.5409,-0.4822 -0.9258,-0.6415 -0.387,-0.1596 -0.8929,-0.2384 -1.5163,-0.2384 -0.7517,0 -1.3218,0.0862 -1.7104,0.2603 -0.3886,0.1743 -0.6951,0.3996 -0.9204,0.6766 -0.2257,0.2766 -0.3739,0.5683 -0.4456,0.8725 -0.1043,0.451 -0.1556,1.1166 -0.1556,1.9984 z"
       style="fill:#231f20;fill-opacity:1;fill-rule:nonzero;stroke:none"
       transform="matrix(1.3333333,0,0,-1.3333333,0,1122.5197)" />
    <path
       id="path55"
       d="m 494.2035,352.6126 1.5474,0.1523 c 0.0918,-0.5208 0.2806,-0.902 0.5666,-1.1458 0.2841,-0.2421 0.6673,-0.3648 1.1512,-0.3648 0.5116,0 0.8986,0.108 1.1568,0.3262 0.2605,0.2163 0.3906,0.4695 0.3906,0.7592 0,0.1868 -0.055,0.3446 -0.165,0.4748 -0.1082,0.1318 -0.2987,0.2454 -0.572,0.341 -0.1851,0.066 -0.6106,0.1797 -1.2722,0.3447 -0.8526,0.2106 -1.4502,0.4711 -1.7932,0.7789 -0.4838,0.4329 -0.7259,0.9607 -0.7259,1.5843 0,0.4014 0.1136,0.7753 0.341,1.1256 0.2273,0.3484 0.5556,0.614 0.9828,0.7974 0.4288,0.1814 0.9439,0.2733 1.5491,0.2733 0.9899,0 1.7325,-0.2163 2.2328,-0.6491 0.4989,-0.4346 0.7611,-1.012 0.7867,-1.7363 l -1.5894,-0.0694 c -0.0681,0.4051 -0.2146,0.6965 -0.4383,0.8725 -0.2236,0.178 -0.5592,0.2659 -1.0065,0.2659 -0.4621,0 -0.8249,-0.0936 -1.0854,-0.2843 -0.1687,-0.1208 -0.2529,-0.2841 -0.2529,-0.4876 0,-0.1871 0.0788,-0.3464 0.2364,-0.4785 0.1999,-0.1686 0.6874,-0.3447 1.4613,-0.5261 0.7736,-0.1834 1.3456,-0.3722 1.7158,-0.5666 0.3705,-0.1962 0.6602,-0.4621 0.8711,-0.8011 0.2089,-0.3393 0.3135,-0.7571 0.3135,-1.2541 0,-0.451 -0.1247,-0.8744 -0.3759,-1.2668 -0.2511,-0.3943 -0.6052,-0.6874 -1.0635,-0.8781 -0.4581,-0.1925 -1.0301,-0.288 -1.7141,-0.288 -0.9956,0 -1.7601,0.2293 -2.2936,0.6893 -0.5334,0.4604 -0.8523,1.1314 -0.9552,2.0112"
       style="fill:#231f20;fill-opacity:1;fill-rule:nonzero;stroke:none"
       transform="matrix(1.3333333,0,0,-1.3333333,0,1122.5197)" />
    <path
       id="path56"
       d="m 501.9644,350.0515 v 7.8744 h 1.5894 v -3.4963 l 3.212,3.4963 h 2.1379 l -2.9648,-3.0674 3.126,-4.807 h -2.0571 l -2.1634,3.6961 -1.2906,-1.3164 v -2.3797 z"
       style="fill:#231f20;fill-opacity:1;fill-rule:nonzero;stroke:none"
       transform="matrix(1.3333333,0,0,-1.3333333,0,1122.5197)" />
    <path
       id="path57"
       d="m 481.4022,305.8696 h 0.4569 v 0.235 c 0,0.2611 0.0281,0.4569 0.0842,0.5859 0.0559,0.1293 0.1579,0.2342 0.307,0.3152 0.15,0.0808 0.3388,0.1211 0.567,0.1211 0.235,0 0.464,-0.0352 0.6891,-0.1052 l -0.1112,-0.5749 c -0.1309,0.0321 -0.2571,0.0468 -0.3781,0.0468 -0.1199,0 -0.2049,-0.0269 -0.2568,-0.0828 -0.0522,-0.0561 -0.0771,-0.163 -0.0771,-0.3211 v -0.22 h 0.6151 v -0.6469 h -0.6151 v -2.4641 h -0.8241 v 2.4641 h -0.4569 z"
       style="fill:#231f20;fill-opacity:1;fill-rule:nonzero;stroke:none"
       transform="matrix(1.3333333,0,0,-1.3333333,0,1122.5197)" />
    <path
       id="path58"
       d="m 484.5492,302.7586 h -0.8229 v 3.111 h 0.764 v -0.4419 c 0.1309,0.2089 0.2491,0.3469 0.3532,0.413 0.1048,0.066 0.2228,0.1001 0.356,0.1001 0.1879,0 0.3679,-0.0522 0.542,-0.1562 l -0.2551,-0.7169 c -0.1381,0.089 -0.2671,0.1338 -0.3861,0.1338 -0.116,0 -0.2129,-0.0309 -0.2928,-0.095 -0.0811,-0.0629 -0.1432,-0.178 -0.1891,-0.3438 -0.0459,-0.1661 -0.0692,-0.5142 -0.0692,-1.0432 z"
       style="fill:#231f20;fill-opacity:1;fill-rule:nonzero;stroke:none"
       transform="matrix(1.3333333,0,0,-1.3333333,0,1122.5197)" />
    <path
       id="path59"
       d="m 487.8972,303.7487 0.8209,-0.1372 c -0.1057,-0.301 -0.2718,-0.5301 -0.4997,-0.6868 -0.2271,-0.1582 -0.5122,-0.2361 -0.8541,-0.2361 -0.5411,0 -0.9411,0.176 -1.201,0.53 -0.205,0.2829 -0.3082,0.641 -0.3082,1.0721 0,0.5159 0.1353,0.9199 0.4051,1.2118 0.269,0.2923 0.61,0.4383 1.0222,0.4383 0.4629,0 0.828,-0.1531 1.0959,-0.4593 0.267,-0.3058 0.3951,-0.7738 0.3841,-1.4048 h -2.0631 c 0.006,-0.2441 0.072,-0.434 0.199,-0.5692 0.127,-0.1358 0.286,-0.2038 0.4751,-0.2038 0.129,0 0.237,0.0349 0.3248,0.1049 0.0882,0.0711 0.1551,0.1839 0.199,0.3401 z m 0.0471,0.832 c -0.006,0.239 -0.0669,0.4198 -0.184,0.544 -0.1171,0.1238 -0.2599,0.1859 -0.428,0.1859 -0.18,0 -0.328,-0.066 -0.4451,-0.197 -0.117,-0.1301 -0.1749,-0.3081 -0.1729,-0.5329 z"
       style="fill:#231f20;fill-opacity:1;fill-rule:nonzero;stroke:none"
       transform="matrix(1.3333333,0,0,-1.3333333,0,1122.5197)" />
    <path
       id="path60"
       d="m 489.433,306.2917 v 0.7619 h 0.8232 v -0.7619 z m 0,-3.5331 v 3.111 h 0.8232 v -3.111 z"
       style="fill:#231f20;fill-opacity:1;fill-rule:nonzero;stroke:none"
       transform="matrix(1.3333333,0,0,-1.3333333,0,1122.5197)" />
    <path
       id="path61"
       d="m 491.0241,302.5536 0.9403,-0.1139 c 0.0159,-0.11 0.0519,-0.1851 0.108,-0.2262 0.0779,-0.059 0.2018,-0.0879 0.3688,-0.0879 0.2151,0 0.3761,0.032 0.4841,0.097 0.072,0.043 0.127,0.1119 0.1639,0.208 0.0252,0.068 0.0379,0.1939 0.0379,0.3779 v 0.4541 c -0.2457,-0.3359 -0.557,-0.504 -0.932,-0.504 -0.4178,0 -0.7489,0.1769 -0.993,0.5301 -0.1907,0.28 -0.2868,0.627 -0.2868,1.0428 0,0.5222 0.1258,0.9202 0.377,1.1962 0.2508,0.275 0.5629,0.4131 0.936,0.4131 0.3841,0 0.7018,-0.1693 0.9519,-0.5072 v 0.436 h 0.7701 v -2.7921 c 0,-0.3668 -0.03,-0.6409 -0.091,-0.8229 -0.0601,-0.182 -0.1451,-0.324 -0.2539,-0.428 -0.11,-0.1029 -0.256,-0.184 -0.438,-0.243 -0.1831,-0.0581 -0.4141,-0.0881 -0.6931,-0.0881 -0.5281,0 -0.902,0.091 -1.1219,0.271 -0.2211,0.1811 -0.3311,0.4101 -0.3311,0.6871 0,0.028 8e-4,0.0609 0.003,0.1 z m 0.735,1.825 c 0,-0.33 0.0641,-0.572 0.1922,-0.7251 0.1279,-0.1528 0.2849,-0.2299 0.4729,-0.2299 0.2009,0 0.371,0.0791 0.5102,0.2361 0.1378,0.1568 0.2078,0.3898 0.2078,0.699 0,0.3218 -0.0669,0.561 -0.1999,0.7169 -0.1321,0.1571 -0.3002,0.235 -0.5031,0.235 -0.1979,0 -0.36,-0.0771 -0.4879,-0.2299 -0.1281,-0.1542 -0.1922,-0.3872 -0.1922,-0.7021"
       style="fill:#231f20;fill-opacity:1;fill-rule:nonzero;stroke:none"
       transform="matrix(1.3333333,0,0,-1.3333333,0,1122.5197)" />
    <path
       id="path62"
       d="m 496.5664,303.7487 0.8209,-0.1372 c -0.1057,-0.301 -0.2718,-0.5301 -0.4997,-0.6868 -0.2271,-0.1582 -0.5122,-0.2361 -0.8541,-0.2361 -0.5411,0 -0.9411,0.176 -1.201,0.53 -0.205,0.2829 -0.3082,0.641 -0.3082,1.0721 0,0.5159 0.1353,0.9199 0.4051,1.2118 0.269,0.2923 0.61,0.4383 1.0222,0.4383 0.4629,0 0.828,-0.1531 1.0959,-0.4593 0.267,-0.3058 0.3951,-0.7738 0.3841,-1.4048 h -2.0631 c 0.006,-0.2441 0.072,-0.434 0.199,-0.5692 0.127,-0.1358 0.286,-0.2038 0.4751,-0.2038 0.129,0 0.237,0.0349 0.3248,0.1049 0.0882,0.0711 0.1551,0.1839 0.199,0.3401 z m 0.0471,0.832 c -0.006,0.239 -0.0669,0.4198 -0.184,0.544 -0.1171,0.1238 -0.2599,0.1859 -0.428,0.1859 -0.18,0 -0.328,-0.066 -0.4451,-0.197 -0.117,-0.1301 -0.1749,-0.3081 -0.1729,-0.5329 z"
       style="fill:#231f20;fill-opacity:1;fill-rule:nonzero;stroke:none"
       transform="matrix(1.3333333,0,0,-1.3333333,0,1122.5197)" />
    <path
       id="path63"
       d="m 498.0263,302.5536 0.9402,-0.1139 c 0.0159,-0.11 0.0519,-0.1851 0.108,-0.2262 0.078,-0.059 0.2018,-0.0879 0.3688,-0.0879 0.2152,0 0.3762,0.032 0.4842,0.097 0.072,0.043 0.127,0.1119 0.1638,0.208 0.0252,0.068 0.038,0.1939 0.038,0.3779 v 0.4541 c -0.2458,-0.3359 -0.557,-0.504 -0.932,-0.504 -0.4179,0 -0.749,0.1769 -0.993,0.5301 -0.1908,0.28 -0.2869,0.627 -0.2869,1.0428 0,0.5222 0.1259,0.9202 0.377,1.1962 0.2509,0.275 0.563,0.4131 0.936,0.4131 0.3841,0 0.7019,-0.1693 0.9519,-0.5072 v 0.436 h 0.7702 v -2.7921 c 0,-0.3668 -0.0301,-0.6409 -0.091,-0.8229 -0.0601,-0.182 -0.1452,-0.324 -0.254,-0.428 -0.11,-0.1029 -0.256,-0.184 -0.438,-0.243 -0.1831,-0.0581 -0.4141,-0.0881 -0.693,-0.0881 -0.5281,0 -0.902,0.091 -1.122,0.271 -0.2211,0.1811 -0.3311,0.4101 -0.3311,0.6871 0,0.028 9e-4,0.0609 0.003,0.1 z m 0.735,1.825 c 0,-0.33 0.0641,-0.572 0.1922,-0.7251 0.1278,-0.1528 0.2849,-0.2299 0.4728,-0.2299 0.201,0 0.3711,0.0791 0.5102,0.2361 0.1378,0.1568 0.2078,0.3898 0.2078,0.699 0,0.3218 -0.0669,0.561 -0.1998,0.7169 -0.1321,0.1571 -0.3002,0.235 -0.5032,0.235 -0.1978,0 -0.36,-0.0771 -0.4878,-0.2299 -0.1281,-0.1542 -0.1922,-0.3872 -0.1922,-0.7021"
       style="fill:#231f20;fill-opacity:1;fill-rule:nonzero;stroke:none"
       transform="matrix(1.3333333,0,0,-1.3333333,0,1122.5197)" />
    <path
       id="path64"
       d="m 503.5686,303.7487 0.8209,-0.1372 c -0.1058,-0.301 -0.2719,-0.5301 -0.4998,-0.6868 -0.227,-0.1582 -0.5122,-0.2361 -0.854,-0.2361 -0.5412,0 -0.9411,0.176 -1.2011,0.53 -0.2049,0.2829 -0.3081,0.641 -0.3081,1.0721 0,0.5159 0.1352,0.9199 0.4051,1.2118 0.269,0.2923 0.61,0.4383 1.0221,0.4383 0.4629,0 0.828,-0.1531 1.0959,-0.4593 0.267,-0.3058 0.3952,-0.7738 0.3841,-1.4048 h -2.0631 c 0.006,-0.2441 0.072,-0.434 0.199,-0.5692 0.127,-0.1358 0.2861,-0.2038 0.4751,-0.2038 0.129,0 0.237,0.0349 0.3249,0.1049 0.0881,0.0711 0.155,0.1839 0.199,0.3401 z m 0.047,0.832 c -0.006,0.239 -0.0669,0.4198 -0.1839,0.544 -0.1171,0.1238 -0.26,0.1859 -0.4281,0.1859 -0.18,0 -0.3279,-0.066 -0.445,-0.197 -0.1171,-0.1301 -0.1749,-0.3081 -0.1729,-0.5329 z"
       style="fill:#231f20;fill-opacity:1;fill-rule:nonzero;stroke:none"
       transform="matrix(1.3333333,0,0,-1.3333333,0,1122.5197)" />
    <path
       id="path65"
       d="m 505.0695,302.7586 v 4.295 h 0.8229 v -1.5471 c 0.254,0.2891 0.5542,0.4343 0.9023,0.4343 0.379,0 0.6919,-0.1381 0.9408,-0.4122 0.248,-0.2741 0.3722,-0.6678 0.3722,-1.182 0,-0.531 -0.127,-0.9409 -0.3801,-1.228 -0.2532,-0.2869 -0.5602,-0.43 -0.921,-0.43 -0.178,0 -0.3529,0.0439 -0.5261,0.1329 -0.1729,0.089 -0.322,0.22 -0.4471,0.394 v -0.4569 z m 0.817,1.6231 c 0,-0.322 0.051,-0.5601 0.1519,-0.7152 0.1431,-0.2188 0.3322,-0.3279 0.5692,-0.3279 0.1808,0 0.3359,0.0779 0.464,0.233 0.1279,0.155 0.1919,0.3999 0.1919,0.7341 0,0.3549 -0.0649,0.612 -0.1939,0.7688 -0.1281,0.157 -0.2931,0.2361 -0.4952,0.2361 -0.197,0 -0.3608,-0.0771 -0.4918,-0.2299 -0.1309,-0.1542 -0.1961,-0.3861 -0.1961,-0.699"
       style="fill:#231f20;fill-opacity:1;fill-rule:nonzero;stroke:none"
       transform="matrix(1.3333333,0,0,-1.3333333,0,1122.5197)" />
    <path
       id="path66"
       d="m 510.5707,303.7487 0.8209,-0.1372 c -0.1057,-0.301 -0.2718,-0.5301 -0.4997,-0.6868 -0.2271,-0.1582 -0.5122,-0.2361 -0.8541,-0.2361 -0.5411,0 -0.9411,0.176 -1.201,0.53 -0.205,0.2829 -0.3082,0.641 -0.3082,1.0721 0,0.5159 0.1352,0.9199 0.4051,1.2118 0.269,0.2923 0.61,0.4383 1.0222,0.4383 0.4629,0 0.828,-0.1531 1.0958,-0.4593 0.2671,-0.3058 0.3952,-0.7738 0.3841,-1.4048 h -2.063 c 0.006,-0.2441 0.072,-0.434 0.199,-0.5692 0.127,-0.1358 0.286,-0.2038 0.4751,-0.2038 0.1289,0 0.2369,0.0349 0.3248,0.1049 0.0882,0.0711 0.1551,0.1839 0.199,0.3401 z m 0.0471,0.832 c -0.006,0.239 -0.0669,0.4198 -0.184,0.544 -0.1171,0.1238 -0.2599,0.1859 -0.428,0.1859 -0.18,0 -0.328,-0.066 -0.4451,-0.197 -0.117,-0.1301 -0.1749,-0.3081 -0.1729,-0.5329 z"
       style="fill:#231f20;fill-opacity:1;fill-rule:nonzero;stroke:none"
       transform="matrix(1.3333333,0,0,-1.3333333,0,1122.5197)" />
    <path
       id="path67"
       d="m 514.9366,302.7586 h -0.8229 v 1.588 c 0,0.3361 -0.0181,0.553 -0.053,0.6519 -0.0351,0.0981 -0.093,0.1752 -0.172,0.2302 -0.0791,0.0539 -0.1741,0.0819 -0.2849,0.0819 -0.1432,0 -0.271,-0.0391 -0.3841,-0.1171 -0.1131,-0.0788 -0.1911,-0.1819 -0.233,-0.3109 -0.042,-0.129 -0.063,-0.3671 -0.063,-0.7149 v -1.4091 h -0.8231 v 3.111 h 0.7642 v -0.4569 c 0.2718,0.352 0.614,0.5281 1.0258,0.5281 0.1812,0 0.3481,-0.0332 0.4981,-0.0981 0.1499,-0.0661 0.2639,-0.1491 0.341,-0.2512 0.0771,-0.1017 0.131,-0.2168 0.161,-0.3458 0.0309,-0.129 0.0459,-0.3129 0.0459,-0.553 z"
       style="fill:#231f20;fill-opacity:1;fill-rule:nonzero;stroke:none"
       transform="matrix(1.3333333,0,0,-1.3333333,0,1122.5197)" />
    <path
       id="path68"
       d="m 494.8109,345.5099 -0.7469,0.1349 c 0.0839,0.301 0.2279,0.523 0.4329,0.6681 0.206,0.144 0.5102,0.2171 0.9141,0.2171 0.368,0 0.6409,-0.0442 0.8209,-0.1312 0.1792,-0.087 0.3062,-0.197 0.379,-0.3308 0.0732,-0.1341 0.11,-0.379 0.11,-0.737 l -0.009,-0.9612 c 0,-0.273 0.0128,-0.4748 0.04,-0.6049 0.0258,-0.129 0.076,-0.2691 0.148,-0.417 h -0.815 c -0.0213,0.055 -0.0482,0.136 -0.0791,0.2429 -0.013,0.049 -0.0229,0.0811 -0.0289,0.0969 -0.1412,-0.1369 -0.2911,-0.2389 -0.451,-0.3078 -0.1601,-0.068 -0.3311,-0.102 -0.5131,-0.102 -0.32,0 -0.5731,0.087 -0.7571,0.2599 -0.1848,0.174 -0.2769,0.394 -0.2769,0.6602 0,0.1749 0.0419,0.3319 0.1258,0.47 0.0842,0.138 0.2021,0.2429 0.3532,0.316 0.1508,0.0729 0.3699,0.1369 0.6551,0.1919 0.3838,0.072 0.6508,0.1401 0.7988,0.2021 v 0.082 c 0,0.159 -0.0388,0.271 -0.1168,0.339 -0.0782,0.0669 -0.2251,0.1009 -0.4422,0.1009 -0.1468,0 -0.2611,-0.0289 -0.343,-0.087 -0.0819,-0.057 -0.1479,-0.1579 -0.199,-0.303 z m 1.101,-0.6679 c -0.1049,-0.0351 -0.2718,-0.0771 -0.5009,-0.1261 -0.2282,-0.0491 -0.377,-0.097 -0.4481,-0.1429 -0.1069,-0.0771 -0.161,-0.1732 -0.161,-0.29 0,-0.1162 0.043,-0.2151 0.1289,-0.299 0.0862,-0.0842 0.1951,-0.1262 0.3283,-0.1262 0.1488,0 0.29,0.0491 0.4249,0.146 0.1001,0.074 0.165,0.165 0.1959,0.273 0.0221,0.07 0.032,0.2041 0.032,0.4011 z"
       style="fill:#231f20;fill-opacity:1;fill-rule:nonzero;stroke:none"
       transform="matrix(1.3333333,0,0,-1.3333333,0,1122.5197)" />
    <path
       id="path69"
       d="m 497.4979,343.3479 v 4.295 h 0.8229 v -1.5471 c 0.254,0.2891 0.5542,0.4342 0.9023,0.4342 0.3789,0 0.6919,-0.138 0.9408,-0.4121 0.248,-0.2741 0.3722,-0.6679 0.3722,-1.1821 0,-0.5309 -0.127,-0.9408 -0.3802,-1.2279 -0.2531,-0.2869 -0.5601,-0.43 -0.9209,-0.43 -0.1781,0 -0.353,0.0439 -0.5261,0.1329 -0.173,0.089 -0.3221,0.22 -0.4471,0.394 v -0.4569 z m 0.8169,1.6231 c 0,-0.322 0.0511,-0.5601 0.152,-0.7152 0.1431,-0.2188 0.3322,-0.328 0.5692,-0.328 0.1808,0 0.3359,0.078 0.464,0.2331 0.1278,0.155 0.1919,0.3999 0.1919,0.7341 0,0.3549 -0.0649,0.612 -0.1939,0.7688 -0.1281,0.157 -0.2931,0.2361 -0.4952,0.2361 -0.197,0 -0.3608,-0.0771 -0.4918,-0.2299 -0.131,-0.1542 -0.1962,-0.3861 -0.1962,-0.699"
       style="fill:#231f20;fill-opacity:1;fill-rule:nonzero;stroke:none"
       transform="matrix(1.3333333,0,0,-1.3333333,0,1122.5197)" />
    <path
       id="path70"
       d="m 491.1528,311.9233 h -5.4867 V 332.61 c -2.0067,-1.88 -4.3665,-3.2667 -7.0866,-4.1602 v 4.9802 c 1.4266,0.4666 2.9868,1.3533 4.6666,2.66 1.6801,1.3133 2.8336,2.8398 3.4535,4.5865 h 4.4532 z"
       style="fill:#231f20;fill-opacity:1;fill-rule:nonzero;stroke:none"
       transform="matrix(1.3333333,0,0,-1.3333333,0,1122.5197)" />
    <path
       id="path71"
       d="m 515.1146,317.0234 v -5.1001 h -19.2401 c 0.2134,1.9267 0.8334,3.7533 1.8799,5.4799 1.0401,1.7266 3.1003,4.0133 6.1668,6.8667 2.48,2.3 3.9934,3.8667 4.5533,4.6868 0.7534,1.1333 1.1333,2.2532 1.1333,3.3599 0,1.22 -0.3266,2.16 -0.9865,2.8199 -0.6602,0.6602 -1.5667,0.9867 -2.7266,0.9867 -1.1469,0 -2.0534,-0.3467 -2.7335,-1.0332 -0.6732,-0.6934 -1.0666,-1.84 -1.1732,-3.4401 l -5.4666,0.5468 c 0.3265,3.02 1.3464,5.1865 3.0665,6.5066 1.72,1.3133 3.8667,1.9732 6.4465,1.9732 2.8267,0 5.0468,-0.7665 6.66,-2.2867 1.6135,-1.5265 2.4202,-3.42 2.4202,-5.6866 0,-1.2866 -0.2332,-2.5132 -0.6933,-3.6799 -0.4601,-1.1668 -1.1934,-2.3868 -2.1935,-3.6601 -0.6667,-0.8467 -1.8666,-2.0665 -3.5932,-3.6533 -1.7333,-1.5866 -2.8335,-2.6467 -3.2932,-3.1666 -0.4601,-0.5202 -0.8402,-1.0267 -1.1268,-1.5199 z"
       style="fill:#231f20;fill-opacity:1;fill-rule:nonzero;stroke:none"
       transform="matrix(1.3333333,0,0,-1.3333333,0,1122.5197)" />
  </g>
</svg>
